<?xml version="1.0" encoding="UTF-8" standalone="no"?>
<!-- Created with Inkscape (http://www.inkscape.org/) -->

<svg
   xmlns:dc="http://purl.org/dc/elements/1.1/"
   xmlns:cc="http://creativecommons.org/ns#"
   xmlns:rdf="http://www.w3.org/1999/02/22-rdf-syntax-ns#"
   xmlns:svg="http://www.w3.org/2000/svg"
   xmlns="http://www.w3.org/2000/svg"
   xmlns:sodipodi="http://sodipodi.sourceforge.net/DTD/sodipodi-0.dtd"
   xmlns:inkscape="http://www.inkscape.org/namespaces/inkscape"
   id="svg2"
   version="1.1"
   inkscape:version="0.91 r13725"
   xml:space="preserve"
   width="327.98999"
   height="136.01949"
   viewBox="0 0 327.98999 136.01949"
   sodipodi:docname="CHL_Logo.svg"><metadata
     id="metadata8"><rdf:RDF><cc:Work
         rdf:about=""><dc:format>image/svg+xml</dc:format><dc:type
           rdf:resource="http://purl.org/dc/dcmitype/StillImage" /><dc:title></dc:title></cc:Work></rdf:RDF></metadata><defs
     id="defs6"><clipPath
       clipPathUnits="userSpaceOnUse"
       id="clipPath16"><path
         d="M 0,792 612,792 612,0 0,0 0,792 Z"
         id="path18"
         inkscape:connector-curvature="0" /></clipPath><clipPath
       clipPathUnits="userSpaceOnUse"
       id="clipPath90"><path
         d="m 237.106,356.938 10.076,0 0,-14.911 -10.076,0 0,14.911 z"
         id="path92"
         inkscape:connector-curvature="0" /></clipPath><clipPath
       clipPathUnits="userSpaceOnUse"
       id="clipPath106"><path
         d="m 249.44,357.044 15.165,0 0,-15.017 -15.165,0 0,15.017 z"
         id="path108"
         inkscape:connector-curvature="0" /></clipPath><clipPath
       clipPathUnits="userSpaceOnUse"
       id="clipPath122"><path
         d="m 267.546,356.938 12.013,0 0,-14.911 -12.013,0 0,14.911 z"
         id="path124"
         inkscape:connector-curvature="0" /></clipPath><clipPath
       clipPathUnits="userSpaceOnUse"
       id="clipPath138"><path
         d="m 282.264,357.194 15.219,0 0,-15.422 -15.219,0 0,15.422 z"
         id="path140"
         inkscape:connector-curvature="0" /></clipPath><clipPath
       clipPathUnits="userSpaceOnUse"
       id="clipPath154"><path
         d="m 301.03,356.938 12.333,0 0,-14.911 -12.333,0 0,14.911 z"
         id="path156"
         inkscape:connector-curvature="0" /></clipPath><clipPath
       clipPathUnits="userSpaceOnUse"
       id="clipPath170"><path
         d="m 315.578,357.044 15.165,0 0,-15.017 -15.165,0 0,15.017 z"
         id="path172"
         inkscape:connector-curvature="0" /></clipPath><clipPath
       clipPathUnits="userSpaceOnUse"
       id="clipPath186"><path
         d="m 332.619,356.938 11.693,0 0,-14.911 -11.693,0 0,14.911 z"
         id="path188"
         inkscape:connector-curvature="0" /></clipPath><clipPath
       clipPathUnits="userSpaceOnUse"
       id="clipPath202"><path
         d="m 346.826,357.194 15.219,0 0,-15.422 -15.219,0 0,15.422 z"
         id="path204"
         inkscape:connector-curvature="0" /></clipPath><clipPath
       clipPathUnits="userSpaceOnUse"
       id="clipPath218"><path
         d="m 365.593,356.938 12.333,0 0,-14.911 -12.333,0 0,14.911 z"
         id="path220"
         inkscape:connector-curvature="0" /></clipPath><clipPath
       clipPathUnits="userSpaceOnUse"
       id="clipPath234"><path
         d="m 379.459,356.938 14.081,0 0,-14.911 -14.081,0 0,14.911 z"
         id="path236"
         inkscape:connector-curvature="0" /></clipPath><clipPath
       clipPathUnits="userSpaceOnUse"
       id="clipPath266"><path
         d="m 131.148,415.611 65.123,0 0,-37.542 -65.123,0 0,37.542 z"
         id="path268"
         inkscape:connector-curvature="0" /></clipPath><clipPath
       clipPathUnits="userSpaceOnUse"
       id="clipPath282"><path
         d="m 151.289,419.762 66.96,0 0,-39.279 -66.96,0 0,39.279 z"
         id="path284"
         inkscape:connector-curvature="0" /></clipPath><clipPath
       clipPathUnits="userSpaceOnUse"
       id="clipPath298"><path
         d="m 207.291,430.72 25.818,0 0,-8.976 -25.818,0 0,8.976 z"
         id="path300"
         inkscape:connector-curvature="0" /></clipPath><clipPath
       clipPathUnits="userSpaceOnUse"
       id="clipPath314"><path
         d="m 237.79,436.324 3.477,0 0,-0.614 -3.477,0 0,0.614 z"
         id="path316"
         inkscape:connector-curvature="0" /></clipPath><clipPath
       clipPathUnits="userSpaceOnUse"
       id="clipPath334"><path
         d="m 241.267,436.403 0.515,0 0,-0.079 -0.515,0 0,0.079 z"
         id="path336"
         inkscape:connector-curvature="0" /></clipPath><clipPath
       clipPathUnits="userSpaceOnUse"
       id="clipPath350"><path
         d="m 244.172,441.221 18.426,0 0,-4.48 -18.426,0 0,4.48 z"
         id="path352"
         inkscape:connector-curvature="0" /></clipPath><clipPath
       clipPathUnits="userSpaceOnUse"
       id="clipPath366"><path
         d="m 229.777,430.496 19.75,0 0,-6.425 -19.75,0 0,6.425 z"
         id="path368"
         inkscape:connector-curvature="0" /></clipPath><clipPath
       clipPathUnits="userSpaceOnUse"
       id="clipPath382"><path
         d="m 170.899,419.459 66.981,0 0,-38.213 -66.981,0 0,38.213 z"
         id="path384"
         inkscape:connector-curvature="0" /></clipPath><clipPath
       clipPathUnits="userSpaceOnUse"
       id="clipPath426"><path
         d="m 230.889,435.71 6.901,0 0,-1.842 -6.901,0 0,1.842 z"
         id="path428"
         inkscape:connector-curvature="0" /></clipPath></defs><sodipodi:namedview
     pagecolor="#ffffff"
     bordercolor="#666666"
     borderopacity="1"
     objecttolerance="10"
     gridtolerance="10"
     guidetolerance="10"
     inkscape:pageopacity="0"
     inkscape:pageshadow="2"
     inkscape:window-width="1869"
     inkscape:window-height="1056"
     id="namedview4"
     showgrid="false"
     inkscape:zoom="0.23838384"
     inkscape:cx="218.56505"
     inkscape:cy="67.785003"
     inkscape:window-x="51"
     inkscape:window-y="24"
     inkscape:window-maximized="1"
     inkscape:current-layer="g10"
     fit-margin-top="0"
     fit-margin-left="0"
     fit-margin-right="0"
     fit-margin-bottom="0" /><g
     id="g10"
     inkscape:groupmode="layer"
     inkscape:label="CHL_Logo"
     transform="matrix(1.25,0,0,-1.25,-163.935,563.23448)"><g
       id="g12"><g
         id="g14"
         clip-path="url(#clipPath16)"><g
           id="g20"
           transform="translate(245.2524,387.3052)"><path
             d="M 0,0 C -1.306,0 -2.517,0.238 -3.636,0.712 -4.754,1.188 -5.72,1.835 -6.535,2.657 -7.348,3.48 -7.984,4.451 -8.441,5.568 -8.899,6.688 -9.127,7.884 -9.127,9.154 l 0,0.052 c 0,1.27 0.228,2.46 0.686,3.571 0.457,1.109 1.093,2.086 1.906,2.924 0.815,0.84 1.789,1.5 2.925,1.985 1.135,0.482 2.39,0.724 3.763,0.724 0.83,0 1.589,-0.069 2.275,-0.203 0.687,-0.137 1.31,-0.323 1.87,-0.561 0.558,-0.238 1.076,-0.525 1.551,-0.865 0.473,-0.339 0.915,-0.712 1.322,-1.117 L 4.678,12.79 c -0.695,0.627 -1.402,1.119 -2.123,1.475 -0.72,0.356 -1.53,0.534 -2.428,0.534 -0.746,0 -1.436,-0.145 -2.072,-0.432 -0.635,-0.288 -1.183,-0.687 -1.64,-1.196 -0.457,-0.507 -0.813,-1.097 -1.068,-1.768 -0.254,-0.668 -0.381,-1.384 -0.381,-2.147 l 0,-0.05 c 0,-0.764 0.127,-1.484 0.381,-2.162 0.255,-0.679 0.607,-1.271 1.056,-1.78 0.449,-0.509 0.991,-0.912 1.627,-1.208 0.635,-0.296 1.335,-0.445 2.097,-0.445 1.017,0 1.878,0.186 2.582,0.561 0.702,0.372 1.402,0.879 2.097,1.525 L 7.298,3.178 C 6.84,2.688 6.365,2.247 5.873,1.856 5.382,1.467 4.844,1.132 4.259,0.853 3.675,0.573 3.035,0.36 2.339,0.217 1.644,0.072 0.865,0 0,0"
             style="fill:#192c4e;fill-opacity:1;fill-rule:nonzero;stroke:none"
             id="path22"
             inkscape:connector-curvature="0" /></g><g
           id="g24"
           transform="translate(265.4407,390.916)"><path
             d="M 0,0 C 0.78,0 1.5,0.145 2.161,0.432 2.822,0.72 3.386,1.119 3.853,1.628 4.318,2.135 4.683,2.725 4.945,3.396 5.208,4.064 5.34,4.78 5.34,5.543 l 0,0.052 c 0,0.762 -0.132,1.482 -0.395,2.16 -0.262,0.679 -0.635,1.271 -1.118,1.78 -0.483,0.509 -1.055,0.91 -1.716,1.208 -0.662,0.296 -1.382,0.445 -2.162,0.445 -0.796,0 -1.521,-0.145 -2.173,-0.432 C -2.877,10.468 -3.437,10.069 -3.903,9.56 -4.369,9.053 -4.733,8.463 -4.996,7.793 -5.259,7.124 -5.39,6.408 -5.39,5.645 l 0,-0.05 c 0,-0.763 0.131,-1.483 0.394,-2.162 0.263,-0.679 0.636,-1.271 1.119,-1.78 0.482,-0.509 1.05,-0.912 1.703,-1.208 C -1.521,0.149 -0.797,0 0,0 m -0.051,-3.611 c -1.373,0 -2.636,0.242 -3.788,0.727 -1.153,0.482 -2.148,1.133 -2.987,1.957 -0.839,0.821 -1.492,1.788 -1.959,2.899 -0.465,1.109 -0.698,2.301 -0.698,3.571 l 0,0.052 c 0,1.271 0.237,2.46 0.712,3.572 0.473,1.109 1.13,2.085 1.969,2.923 0.84,0.841 1.84,1.501 3.001,1.985 1.161,0.482 2.428,0.724 3.801,0.724 1.373,0 2.636,-0.242 3.789,-0.724 1.152,-0.484 2.149,-1.136 2.988,-1.96 0.839,-0.821 1.491,-1.788 1.957,-2.897 0.467,-1.111 0.7,-2.301 0.7,-3.573 l 0,-0.05 C 9.434,4.323 9.196,3.133 8.722,2.022 8.247,0.91 7.59,-0.064 6.751,-0.902 5.912,-1.742 4.911,-2.402 3.75,-2.884 2.59,-3.369 1.322,-3.611 -0.051,-3.611"
             style="fill:#192c4e;fill-opacity:1;fill-rule:nonzero;stroke:none"
             id="path26"
             inkscape:connector-curvature="0" /></g><g
           id="g28"
           transform="translate(289.1384,395.0606)"><path
             d="M 0,0 -2.365,5.773 -4.729,0 0,0 Z m -4.119,10.476 3.61,0 7.628,-17.925 -4.094,0 -1.626,3.991 -7.527,0 -1.627,-3.991 -3.992,0 7.628,17.925 z"
             style="fill:#192c4e;fill-opacity:1;fill-rule:nonzero;stroke:none"
             id="path30"
             inkscape:connector-curvature="0" /></g><g
           id="g32"
           transform="translate(306.9367,387.3569)"><path
             d="m 0,0 c -1.356,0 -2.687,0.234 -3.992,0.699 -1.305,0.466 -2.491,1.182 -3.56,2.148 l 2.315,2.773 c 0.813,-0.662 1.648,-1.188 2.504,-1.577 0.856,-0.391 1.793,-0.585 2.81,-0.585 0.814,0 1.445,0.149 1.894,0.445 0.449,0.295 0.673,0.707 0.673,1.233 l 0,0.051 C 2.644,5.442 2.598,5.665 2.505,5.86 2.411,6.055 2.233,6.237 1.969,6.406 1.706,6.576 1.34,6.746 0.873,6.915 0.406,7.085 -0.202,7.263 -0.95,7.449 c -0.901,0.222 -1.716,0.466 -2.448,0.739 -0.731,0.271 -1.351,0.604 -1.861,1.003 -0.51,0.398 -0.904,0.894 -1.185,1.488 -0.281,0.592 -0.421,1.331 -0.421,2.212 l 0,0.05 c 0,0.815 0.151,1.548 0.455,2.199 0.303,0.654 0.728,1.217 1.275,1.693 0.548,0.474 1.201,0.838 1.962,1.093 0.759,0.254 1.597,0.38 2.512,0.38 1.306,0 2.505,-0.194 3.598,-0.583 1.094,-0.391 2.097,-0.95 3.013,-1.678 L 3.916,13.094 c -0.797,0.542 -1.577,0.97 -2.339,1.285 -0.763,0.312 -1.525,0.47 -2.289,0.47 -0.762,0 -1.334,-0.149 -1.716,-0.445 C -2.809,14.108 -3,13.737 -3,13.297 l 0,-0.05 c 0,-0.288 0.056,-0.538 0.166,-0.751 0.11,-0.211 0.31,-0.401 0.599,-0.571 0.289,-0.17 0.684,-0.331 1.185,-0.484 0.502,-0.151 1.135,-0.329 1.899,-0.534 0.902,-0.236 1.704,-0.503 2.41,-0.801 C 3.965,9.81 4.558,9.454 5.044,9.038 5.528,8.622 5.893,8.136 6.139,7.577 6.386,7.017 6.51,6.348 6.51,5.568 l 0,-0.051 C 6.51,4.635 6.349,3.853 6.03,3.166 5.709,2.479 5.263,1.902 4.691,1.436 4.118,0.97 3.435,0.615 2.64,0.368 1.847,0.122 0.966,0 0,0"
             style="fill:#192c4e;fill-opacity:1;fill-rule:nonzero;stroke:none"
             id="path34"
             inkscape:connector-curvature="0" /></g><g
           id="g36"
           transform="translate(322.0658,401.7979)"><path
             d="m 0,0 -5.415,0 0,3.611 14.747,0 0,-3.611 -5.416,0 0,-14.187 -3.916,0 L 0,0 Z"
             style="fill:#192c4e;fill-opacity:1;fill-rule:nonzero;stroke:none"
             id="path38"
             inkscape:connector-curvature="0" /></g><g
           id="g40"
           transform="translate(343.1438,395.0606)"><path
             d="M 0,0 -2.365,5.773 -4.729,0 0,0 Z m -4.119,10.476 3.61,0 7.628,-17.925 -4.094,0 -1.626,3.991 -7.527,0 -1.627,-3.991 -3.992,0 7.628,17.925 z"
             style="fill:#192c4e;fill-opacity:1;fill-rule:nonzero;stroke:none"
             id="path42"
             inkscape:connector-curvature="0" /></g><g
           id="g44"
           transform="translate(354.0776,405.4087)"><path
             d="m 0,0 3.916,0 0,-14.263 8.874,0 0,-3.534 -12.79,0 L 0,0 Z"
             style="fill:#192c4e;fill-opacity:1;fill-rule:nonzero;stroke:none"
             id="path46"
             inkscape:connector-curvature="0" /></g><g
           id="g48"
           transform="translate(382.0353,397.8327)"><path
             d="m 0,0 c 1.096,0.377 1.921,0.831 2.479,1.362 0.555,0.531 0.834,1.167 0.834,1.904 l 0,0.047 C 3.313,4 3.084,4.57 2.626,5.019 2.167,5.468 1.586,5.694 0.883,5.694 0.098,5.694 -0.533,5.456 -1.007,4.983 -1.482,4.508 -1.718,3.919 -1.718,3.216 l 0,-0.05 c 0,-0.244 0.028,-0.486 0.086,-0.723 0.056,-0.238 0.15,-0.48 0.282,-0.725 C -1.22,1.474 -1.043,1.21 -0.823,0.933 -0.601,0.655 -0.328,0.344 0,0 m -0.491,-8.786 c 0.819,0 1.583,0.2 2.295,0.601 0.711,0.402 1.378,0.945 1.999,1.632 l -4.588,4.737 c -1.146,-0.425 -1.981,-0.96 -2.504,-1.607 -0.524,-0.647 -0.785,-1.338 -0.785,-2.073 l 0,-0.05 c 0,-0.458 0.086,-0.883 0.257,-1.277 0.172,-0.391 0.418,-0.735 0.737,-1.03 0.318,-0.294 0.699,-0.523 1.141,-0.687 0.441,-0.164 0.924,-0.246 1.448,-0.246 m 5.498,1.031 C 4.22,-8.606 3.369,-9.263 2.455,-9.731 c -0.917,-0.465 -1.94,-0.699 -3.068,-0.699 -0.771,0 -1.486,0.114 -2.149,0.344 -0.661,0.23 -1.234,0.555 -1.718,0.981 -0.483,0.425 -0.859,0.932 -1.128,1.521 -0.27,0.59 -0.406,1.245 -0.406,1.964 l 0,0.05 c 0,1.144 0.36,2.127 1.081,2.944 0.719,0.818 1.741,1.49 3.068,2.013 -0.59,0.687 -1.023,1.316 -1.301,1.889 -0.279,0.573 -0.417,1.203 -0.417,1.89 l 0,0.05 c 0,0.555 0.11,1.084 0.332,1.583 0.219,0.498 0.527,0.933 0.918,1.301 0.394,0.367 0.869,0.659 1.424,0.87 0.557,0.212 1.179,0.32 1.866,0.32 0.605,0 1.162,-0.102 1.669,-0.308 C 3.132,6.779 3.571,6.499 3.939,6.148 4.306,5.796 4.598,5.387 4.809,4.921 5.023,4.456 5.129,3.953 5.129,3.411 l 0,-0.048 C 5.129,2.267 4.769,1.358 4.048,0.639 3.329,-0.082 2.339,-0.663 1.079,-1.104 l 3.928,-4.001 c 0.376,0.557 0.735,1.154 1.079,1.792 0.343,0.639 0.671,1.318 0.982,2.037 L 8.662,-2.011 C 8.287,-2.83 7.897,-3.599 7.498,-4.318 7.096,-5.039 6.659,-5.71 6.184,-6.331 l 2.993,-3.068 -1.472,-1.128 -2.698,2.772 z"
             style="fill:#192c4e;fill-opacity:1;fill-rule:nonzero;stroke:none"
             id="path50"
             inkscape:connector-curvature="0" /></g><g
           id="g52"
           transform="translate(236.9125,380.3276)"><path
             d="m 0,0 3.565,0 0,-6.41 6.574,0 0,6.41 3.564,0 0,-16.201 -3.564,0 0,6.504 -6.574,0 0,-6.504 -3.565,0 L 0,0 Z"
             style="fill:#192c4e;fill-opacity:1;fill-rule:nonzero;stroke:none"
             id="path54"
             inkscape:connector-curvature="0" /></g><g
           id="g56"
           transform="translate(259.0641,370.5138)"><path
             d="m 0,0 -6.226,9.814 4.166,0 3.865,-6.504 3.935,6.504 4.051,0 -6.226,-9.744 0,-6.457 L 0,-6.387 0,0 Z"
             style="fill:#192c4e;fill-opacity:1;fill-rule:nonzero;stroke:none"
             id="path58"
             inkscape:connector-curvature="0" /></g><g
           id="g60"
           transform="translate(277.3958,367.3436)"><path
             d="M 0,0 C 0.725,0 1.388,0.115 1.99,0.347 2.592,0.578 3.105,0.91 3.529,1.341 3.954,1.774 4.285,2.283 4.525,2.869 4.764,3.457 4.883,4.112 4.883,4.837 l 0,0.047 C 4.883,5.593 4.764,6.25 4.525,6.851 4.285,7.454 3.954,7.97 3.529,8.401 3.105,8.834 2.592,9.17 1.99,9.409 1.388,9.648 0.725,9.767 0,9.767 l -2.755,0 L -2.755,0 0,0 Z m -6.32,12.984 6.32,0 c 1.265,0 2.426,-0.203 3.483,-0.612 C 4.54,11.963 5.45,11.396 6.214,10.671 6.978,9.944 7.568,9.092 7.985,8.113 8.402,7.132 8.61,6.071 8.61,4.93 l 0,-0.046 C 8.61,3.741 8.402,2.677 7.985,1.69 7.568,0.701 6.978,-0.154 6.214,-0.88 5.45,-1.605 4.54,-2.176 3.483,-2.592 2.426,-3.01 1.265,-3.217 0,-3.217 l -6.32,0 0,16.201 z"
             style="fill:#192c4e;fill-opacity:1;fill-rule:nonzero;stroke:none"
             id="path62"
             inkscape:connector-curvature="0" /></g><g
           id="g64"
           transform="translate(296.3519,372.4577)"><path
             d="m 0,0 c 0.88,0 1.554,0.209 2.025,0.625 0.471,0.417 0.706,0.972 0.706,1.667 l 0,0.047 C 2.731,3.11 2.485,3.688 1.99,4.074 1.497,4.46 0.81,4.653 -0.07,4.653 l -3.541,0 L -3.611,0 0,0 Z m -7.176,7.87 7.408,0 C 2.284,7.87 3.858,7.322 4.953,6.227 5.879,5.301 6.342,4.067 6.342,2.524 l 0,-0.047 C 6.342,1.166 6.022,0.098 5.382,-0.729 4.741,-1.554 3.904,-2.161 2.87,-2.545 l 3.958,-5.786 -4.166,0 -3.472,5.183 -0.046,0 -2.755,0 0,-5.183 -3.565,0 0,16.201 z"
             style="fill:#192c4e;fill-opacity:1;fill-rule:nonzero;stroke:none"
             id="path66"
             inkscape:connector-curvature="0" /></g><g
           id="g68"
           transform="translate(315.679,370.9075)"><path
             d="M 0,0 -2.153,5.255 -4.305,0 0,0 Z m -3.749,9.537 3.286,0 6.944,-16.318 -3.727,0 -1.481,3.633 -6.851,0 -1.482,-3.633 -3.633,0 6.944,16.318 z"
             style="fill:#192c4e;fill-opacity:1;fill-rule:nonzero;stroke:none"
             id="path70"
             inkscape:connector-curvature="0" /></g><g
           id="g72"
           transform="translate(331.4188,363.872)"><path
             d="m 0,0 c -2.177,0 -3.889,0.601 -5.139,1.805 -1.249,1.203 -1.875,3 -1.875,5.392 l 0,9.259 3.565,0 0,-9.166 c 0,-1.326 0.308,-2.327 0.926,-2.997 0.617,-0.671 1.473,-1.008 2.569,-1.008 1.095,0 1.952,0.326 2.569,0.974 0.617,0.648 0.926,1.62 0.926,2.916 l 0,9.281 3.564,0 0,-9.142 C 7.105,6.079 6.939,5.007 6.608,4.097 6.276,3.185 5.802,2.426 5.185,1.816 4.567,1.206 3.819,0.752 2.939,0.45 2.06,0.149 1.079,0 0,0"
             style="fill:#192c4e;fill-opacity:1;fill-rule:nonzero;stroke:none"
             id="path74"
             inkscape:connector-curvature="0" /></g><g
           id="g76"
           transform="translate(342.1575,380.3276)"><path
             d="m 0,0 3.565,0 0,-12.984 8.078,0 0,-3.217 L 0,-16.201 0,0 Z"
             style="fill:#192c4e;fill-opacity:1;fill-rule:nonzero;stroke:none"
             id="path78"
             inkscape:connector-curvature="0" /></g><path
           d="m 356.646,380.328 3.565,0 0,-16.201 -3.565,0 0,16.201 z"
           style="fill:#192c4e;fill-opacity:1;fill-rule:nonzero;stroke:none"
           id="path80"
           inkscape:connector-curvature="0" /><g
           id="g82"
           transform="translate(371.855,363.8476)"><path
             d="m 0,0 c -1.189,0 -2.292,0.217 -3.31,0.648 -1.019,0.433 -1.898,1.023 -2.639,1.771 -0.74,0.749 -1.32,1.633 -1.736,2.65 -0.417,1.019 -0.624,2.108 -0.624,3.264 l 0,0.047 c 0,1.157 0.207,2.24 0.624,3.252 0.416,1.009 0.996,1.898 1.736,2.661 0.741,0.765 1.628,1.366 2.662,1.807 1.034,0.438 2.176,0.659 3.426,0.659 0.756,0 1.447,-0.062 2.071,-0.185 0.625,-0.124 1.192,-0.294 1.702,-0.51 0.509,-0.217 0.98,-0.479 1.411,-0.788 0.432,-0.309 0.835,-0.648 1.204,-1.017 L 4.259,11.643 c -0.633,0.571 -1.277,1.019 -1.933,1.343 -0.655,0.324 -1.394,0.486 -2.211,0.486 -0.678,0 -1.307,-0.132 -1.886,-0.394 -0.578,-0.262 -1.077,-0.625 -1.493,-1.089 -0.417,-0.461 -0.741,-0.998 -0.972,-1.608 -0.232,-0.609 -0.347,-1.26 -0.347,-1.955 l 0,-0.046 c 0,-0.695 0.115,-1.35 0.347,-1.968 0.231,-0.618 0.552,-1.157 0.96,-1.62 0.409,-0.463 0.903,-0.831 1.483,-1.1 0.578,-0.269 1.215,-0.405 1.908,-0.405 0.927,0 1.71,0.169 2.351,0.51 0.638,0.339 1.275,0.801 1.908,1.389 L 6.644,2.893 C 6.225,2.447 5.794,2.046 5.346,1.69 4.899,1.336 4.41,1.03 3.877,0.776 3.345,0.522 2.761,0.328 2.129,0.198 1.496,0.066 0.787,0 0,0"
             style="fill:#192c4e;fill-opacity:1;fill-rule:nonzero;stroke:none"
             id="path84"
             inkscape:connector-curvature="0" /></g><g
           id="g86"><g
             id="g88" /><g
             id="g94"><g
               clip-path="url(#clipPath90)"
               id="g96"><g
                 transform="translate(237.1065,356.9382)"
                 id="g98"><path
                   d="m 0,0 1.682,0 0,-13.357 8.393,0 0,-1.554 L 0,-14.911 0,0 Z"
                   style="fill:#20518d;fill-opacity:1;fill-rule:nonzero;stroke:none"
                   id="path100"
                   inkscape:connector-curvature="0" /></g></g></g></g><g
           id="g102"><g
             id="g104" /><g
             id="g110"><g
               clip-path="url(#clipPath106)"
               id="g112"><g
                 transform="translate(260.3878,347.4796)"
                 id="g114"><path
                   d="M 0,0 -3.387,7.605 -6.795,0 0,0 Z m -4.153,9.565 1.576,0 6.795,-15.017 -1.81,0 -1.748,3.94 -8.115,0 -1.767,-3.94 -1.726,0 6.795,15.017 z"
                   style="fill:#20518d;fill-opacity:1;fill-rule:nonzero;stroke:none"
                   id="path116"
                   inkscape:connector-curvature="0" /></g></g></g></g><g
           id="g118"><g
             id="g120" /><g
             id="g126"><g
               clip-path="url(#clipPath122)"
               id="g128"><g
                 transform="translate(274.2209,343.5398)"
                 id="g130"><path
                   d="m 0,0 c 1.134,0 2.026,0.233 2.677,0.703 0.652,0.468 0.978,1.121 0.978,1.96 l 0,0.041 c 0,0.809 -0.333,1.438 -0.999,1.887 -0.665,0.447 -1.65,0.67 -2.953,0.67 l -4.696,0 L -4.993,0 0,0 Z m -0.596,6.773 c 1.019,0 1.844,0.223 2.474,0.668 0.632,0.445 0.947,1.106 0.947,1.984 l 0,0.042 c 0,0.736 -0.284,1.323 -0.85,1.762 -0.567,0.437 -1.381,0.657 -2.443,0.657 l -4.525,0 0,-5.113 4.397,0 z m -6.079,6.625 6.335,0 c 0.85,0 1.605,-0.118 2.264,-0.351 0.659,-0.233 1.201,-0.556 1.627,-0.967 0.637,-0.666 0.957,-1.461 0.957,-2.382 l 0,-0.042 C 4.508,9.174 4.44,8.745 4.305,8.369 4.171,7.994 3.99,7.668 3.763,7.391 3.536,7.114 3.286,6.881 3.009,6.69 2.733,6.498 2.446,6.338 2.149,6.211 2.588,6.082 3.002,5.916 3.393,5.71 3.782,5.504 4.119,5.259 4.403,4.974 4.686,4.689 4.912,4.352 5.083,3.961 5.252,3.57 5.338,3.118 5.338,2.604 l 0,-0.041 C 5.338,1.922 5.21,1.35 4.955,0.845 4.7,0.339 4.335,-0.087 3.86,-0.435 3.385,-0.784 2.814,-1.051 2.149,-1.236 1.482,-1.421 0.745,-1.512 -0.062,-1.512 l -6.613,0 0,14.91 z"
                   style="fill:#20518d;fill-opacity:1;fill-rule:nonzero;stroke:none"
                   id="path132"
                   inkscape:connector-curvature="0" /></g></g></g></g><g
           id="g134"><g
             id="g136" /><g
             id="g142"><g
               clip-path="url(#clipPath138)"
               id="g144"><g
                 transform="translate(289.8888,343.3255)"
                 id="g146"><path
                   d="M 0,0 C 0.853,0 1.637,0.16 2.355,0.481 3.071,0.799 3.686,1.236 4.197,1.791 4.708,2.344 5.109,2.989 5.4,3.728 5.691,4.466 5.837,5.263 5.837,6.114 l 0,0.043 C 5.837,7.008 5.691,7.807 5.4,8.554 5.109,9.298 4.701,9.947 4.176,10.503 3.65,11.056 3.029,11.495 2.312,11.824 1.594,12.15 0.81,12.313 -0.042,12.313 c -0.852,0 -1.637,-0.161 -2.354,-0.479 -0.717,-0.32 -1.332,-0.757 -1.842,-1.31 C -4.75,9.97 -5.151,9.323 -5.442,8.585 -5.733,7.846 -5.879,7.052 -5.879,6.199 l 0,-0.042 c 0,-0.853 0.146,-1.651 0.437,-2.396 C -5.151,3.014 -4.743,2.365 -4.218,1.812 -3.692,1.259 -3.07,0.818 -2.354,0.491 -1.636,0.164 -0.852,0 0,0 m -0.042,-1.554 c -1.136,0 -2.169,0.206 -3.099,0.618 -0.931,0.412 -1.73,0.969 -2.396,1.672 -0.668,0.703 -1.183,1.519 -1.545,2.449 -0.362,0.93 -0.543,1.907 -0.543,2.929 l 0,0.043 c 0,1.022 0.184,2.001 0.553,2.94 0.37,0.936 0.888,1.757 1.555,2.46 0.668,0.704 1.47,1.263 2.407,1.683 0.938,0.418 1.974,0.629 3.11,0.629 1.137,0 2.17,-0.206 3.099,-0.618 0.93,-0.412 1.729,-0.97 2.397,-1.673 C 6.164,10.875 6.678,10.058 7.04,9.128 7.402,8.198 7.583,7.222 7.583,6.199 7.598,6.184 7.598,6.17 7.583,6.157 7.583,5.134 7.399,4.154 7.03,3.218 6.661,2.28 6.142,1.46 5.475,0.757 4.807,0.054 4.005,-0.508 3.068,-0.926 2.13,-1.344 1.094,-1.554 -0.042,-1.554"
                   style="fill:#20518d;fill-opacity:1;fill-rule:nonzero;stroke:none"
                   id="path148"
                   inkscape:connector-curvature="0" /></g></g></g></g><g
           id="g150"><g
             id="g152" /><g
             id="g158"><g
               clip-path="url(#clipPath154)"
               id="g160"><g
                 transform="translate(307.304,349.333)"
                 id="g162"><path
                   d="m 0,0 c 0.555,0 1.067,0.071 1.537,0.212 0.47,0.144 0.876,0.345 1.217,0.608 0.342,0.264 0.609,0.582 0.801,0.959 0.192,0.376 0.289,0.805 0.289,1.289 l 0,0.042 c 0,0.923 -0.335,1.643 -1.005,2.161 -0.668,0.52 -1.608,0.778 -2.818,0.778 l -4.613,0 L -4.592,0 0,0 Z m -6.274,7.605 6.411,0 C 1.06,7.605 1.88,7.474 2.597,7.21 3.315,6.948 3.908,6.582 4.377,6.114 4.745,5.743 5.029,5.311 5.229,4.814 5.427,4.316 5.526,3.771 5.526,3.174 l 0,-0.043 C 5.526,2.507 5.427,1.949 5.229,1.46 5.029,0.969 4.749,0.543 4.387,0.181 4.025,-0.181 3.595,-0.478 3.098,-0.714 2.601,-0.949 2.061,-1.115 1.479,-1.215 l 4.58,-6.091 -2.066,0 -4.325,5.794 -0.042,0 -4.218,0 0,-5.794 -1.682,0 0,14.911 z"
                   style="fill:#20518d;fill-opacity:1;fill-rule:nonzero;stroke:none"
                   id="path164"
                   inkscape:connector-curvature="0" /></g></g></g></g><g
           id="g166"><g
             id="g168" /><g
             id="g174"><g
               clip-path="url(#clipPath170)"
               id="g176"><g
                 transform="translate(326.5259,347.4796)"
                 id="g178"><path
                   d="M 0,0 -3.387,7.605 -6.795,0 0,0 Z m -4.153,9.565 1.576,0 6.795,-15.017 -1.81,0 -1.748,3.94 -8.115,0 -1.767,-3.94 -1.726,0 6.795,15.017 z"
                   style="fill:#20518d;fill-opacity:1;fill-rule:nonzero;stroke:none"
                   id="path180"
                   inkscape:connector-curvature="0" /></g></g></g></g><g
           id="g182"><g
             id="g184" /><g
             id="g190"><g
               clip-path="url(#clipPath186)"
               id="g192"><g
                 transform="translate(337.6236,355.3822)"
                 id="g194"><path
                   d="m 0,0 -5.005,0 0,1.556 11.694,0 0,-1.556 -5.006,0 0,-13.355 -1.683,0 L 0,0 Z"
                   style="fill:#20518d;fill-opacity:1;fill-rule:nonzero;stroke:none"
                   id="path196"
                   inkscape:connector-curvature="0" /></g></g></g></g><g
           id="g198"><g
             id="g200" /><g
             id="g206"><g
               clip-path="url(#clipPath202)"
               id="g208"><g
                 transform="translate(354.4512,343.3255)"
                 id="g210"><path
                   d="M 0,0 C 0.853,0 1.637,0.16 2.355,0.481 3.071,0.799 3.686,1.236 4.197,1.791 4.708,2.344 5.109,2.989 5.4,3.728 5.691,4.466 5.837,5.263 5.837,6.114 l 0,0.043 C 5.837,7.008 5.691,7.807 5.4,8.554 5.109,9.298 4.701,9.947 4.176,10.503 3.65,11.056 3.029,11.495 2.312,11.824 1.594,12.15 0.81,12.313 -0.042,12.313 c -0.853,0 -1.637,-0.161 -2.354,-0.479 -0.717,-0.32 -1.332,-0.757 -1.842,-1.31 C -4.75,9.97 -5.151,9.323 -5.442,8.585 -5.733,7.846 -5.879,7.052 -5.879,6.199 l 0,-0.042 c 0,-0.853 0.146,-1.651 0.437,-2.396 C -5.151,3.014 -4.743,2.365 -4.218,1.812 -3.692,1.259 -3.07,0.818 -2.354,0.491 -1.636,0.164 -0.852,0 0,0 m -0.042,-1.554 c -1.136,0 -2.169,0.206 -3.099,0.618 -0.931,0.412 -1.73,0.969 -2.396,1.672 -0.668,0.703 -1.183,1.519 -1.545,2.449 -0.362,0.93 -0.543,1.907 -0.543,2.929 l 0,0.043 c 0,1.022 0.184,2.001 0.553,2.94 0.37,0.936 0.888,1.757 1.555,2.46 0.668,0.704 1.47,1.263 2.407,1.683 0.938,0.418 1.974,0.629 3.11,0.629 1.137,0 2.17,-0.206 3.099,-0.618 0.93,-0.412 1.729,-0.97 2.397,-1.673 C 6.164,10.875 6.678,10.058 7.04,9.128 7.402,8.198 7.583,7.222 7.583,6.199 7.598,6.184 7.598,6.17 7.583,6.157 7.583,5.134 7.399,4.154 7.03,3.218 6.661,2.28 6.142,1.46 5.475,0.757 4.807,0.054 4.005,-0.508 3.068,-0.926 2.13,-1.344 1.094,-1.554 -0.042,-1.554"
                   style="fill:#20518d;fill-opacity:1;fill-rule:nonzero;stroke:none"
                   id="path212"
                   inkscape:connector-curvature="0" /></g></g></g></g><g
           id="g214"><g
             id="g216" /><g
             id="g222"><g
               clip-path="url(#clipPath218)"
               id="g224"><g
                 transform="translate(371.8664,349.333)"
                 id="g226"><path
                   d="m 0,0 c 0.555,0 1.067,0.071 1.537,0.212 0.47,0.144 0.876,0.345 1.217,0.608 0.342,0.264 0.609,0.582 0.801,0.959 0.192,0.376 0.289,0.805 0.289,1.289 l 0,0.042 c 0,0.923 -0.335,1.643 -1.005,2.161 -0.668,0.52 -1.608,0.778 -2.818,0.778 l -4.613,0 L -4.592,0 0,0 Z m -6.274,7.605 6.411,0 C 1.06,7.605 1.88,7.474 2.597,7.21 3.315,6.948 3.908,6.582 4.377,6.114 4.745,5.743 5.03,5.311 5.23,4.814 5.427,4.316 5.527,3.771 5.527,3.174 l 0,-0.043 C 5.527,2.507 5.427,1.949 5.23,1.46 5.03,0.969 4.749,0.543 4.387,0.181 4.025,-0.181 3.595,-0.478 3.098,-0.714 2.601,-0.949 2.061,-1.115 1.479,-1.215 l 4.581,-6.091 -2.067,0 -4.325,5.794 -0.042,0 -4.218,0 0,-5.794 -1.682,0 0,14.911 z"
                   style="fill:#20518d;fill-opacity:1;fill-rule:nonzero;stroke:none"
                   id="path228"
                   inkscape:connector-curvature="0" /></g></g></g></g><g
           id="g230"><g
             id="g232" /><g
             id="g238"><g
               clip-path="url(#clipPath234)"
               id="g240"><g
                 transform="translate(385.658,347.9268)"
                 id="g242"><path
                   d="m 0,0 -6.199,9.011 2.045,0 5.017,-7.455 5.059,7.455 1.96,0 -6.199,-8.99 0,-5.92 L 0,-5.899 0,0 Z"
                   style="fill:#20518d;fill-opacity:1;fill-rule:nonzero;stroke:none"
                   id="path244"
                   inkscape:connector-curvature="0" /></g></g></g></g><g
           id="g246"
           transform="translate(387.4366,363.7675)"><path
             d="m 0,0 c -1.235,0 -2.446,0.213 -3.634,0.637 -1.188,0.424 -2.267,1.075 -3.24,1.955 l 2.106,2.524 c 0.741,-0.603 1.501,-1.081 2.28,-1.435 0.78,-0.356 1.632,-0.533 2.558,-0.533 0.741,0 1.315,0.135 1.724,0.405 0.409,0.269 0.613,0.644 0.613,1.122 l 0,0.047 C 2.407,4.954 2.365,5.157 2.28,5.335 2.194,5.512 2.032,5.677 1.792,5.832 1.553,5.986 1.22,6.141 0.795,6.295 0.369,6.45 -0.184,6.612 -0.865,6.781 c -0.82,0.202 -1.562,0.424 -2.228,0.673 -0.666,0.246 -1.23,0.55 -1.694,0.913 -0.465,0.362 -0.823,0.814 -1.079,1.355 -0.256,0.538 -0.383,1.211 -0.383,2.013 l 0,0.045 c 0,0.742 0.137,1.409 0.413,2.003 0.276,0.595 0.663,1.107 1.162,1.54 0.498,0.432 1.093,0.763 1.785,0.995 0.692,0.232 1.455,0.347 2.287,0.347 1.189,0 2.28,-0.177 3.276,-0.532 0.995,-0.356 1.909,-0.864 2.742,-1.527 L 3.565,11.92 c -0.725,0.493 -1.436,0.883 -2.13,1.169 -0.694,0.285 -1.388,0.428 -2.083,0.428 -0.694,0 -1.215,-0.136 -1.562,-0.405 -0.347,-0.269 -0.521,-0.606 -0.521,-1.008 l 0,-0.045 c 0,-0.262 0.051,-0.49 0.151,-0.684 0.1,-0.192 0.282,-0.365 0.546,-0.52 0.262,-0.154 0.622,-0.301 1.078,-0.44 0.457,-0.138 1.033,-0.3 1.729,-0.486 C 1.594,9.714 2.324,9.471 2.967,9.2 3.609,8.93 4.15,8.606 4.591,8.228 5.032,7.849 5.365,7.407 5.589,6.898 5.813,6.387 5.926,5.779 5.926,5.069 l 0,-0.047 C 5.926,4.219 5.78,3.507 5.489,2.882 5.197,2.257 4.791,1.731 4.27,1.307 3.748,0.883 3.127,0.559 2.404,0.335 1.681,0.111 0.88,0 0,0"
             style="fill:#192c4e;fill-opacity:1;fill-rule:nonzero;stroke:none"
             id="path248"
             inkscape:connector-curvature="0" /></g><g
           id="g250"
           transform="translate(306.7705,448.6493)"><path
             d="m 0,0 c 0,0 -8.589,1.562 -11.848,1.771 0,0 -7.801,0.602 -16.653,-0.478 0,0 -0.161,-0.022 -0.389,-0.059 -0.232,-0.025 -0.704,-0.081 -1.373,-0.176 -0.468,-0.068 -0.938,-0.142 -1.408,-0.221 -3.812,-1.768 -8.152,-4.787 -12.502,-8.3 0.859,-0.044 1.752,-0.119 2.669,-0.238 l 0,0 0,-0.001 13.638,-1.604 9.001,-0.68 5.65,-0.258 c 9.53,-0.278 12.673,0.17 12.673,0.17 2.877,0.277 10.056,1.04 18.369,8.524 0,0 -6.912,-0.332 -17.827,1.55"
             style="fill:#20518d;fill-opacity:1;fill-rule:nonzero;stroke:none"
             id="path252"
             inkscape:connector-curvature="0" /></g><g
           id="g254"
           transform="translate(233.1086,430.6382)"><path
             d="M 0,0 C 0.666,-0.034 1.552,-0.082 2.596,-0.143 5.459,2.212 8.299,4.287 11.064,6.103 10.191,5.989 9.229,5.848 8.674,5.765 L 1.39,1.016 C 1.39,1.016 0.842,0.615 0,0"
             style="fill:#20518d;fill-opacity:1;fill-rule:nonzero;stroke:none"
             id="path256"
             inkscape:connector-curvature="0" /></g><g
           id="g258"
           transform="translate(231.5669,430.707)"><path
             d="m 0,0 c 0.073,-0.002 0.144,-0.001 0.218,-0.003 0,0 0.488,-0.022 1.324,-0.066 0.841,0.615 1.39,1.017 1.39,1.017 l 7.283,4.748 C 10.044,5.674 9.872,5.642 9.7,5.617 9.421,5.566 7.883,5.286 6.922,5.137 6.681,5.092 6.45,5.047 6.223,5.003 3.832,4.496 1.49,3.849 -0.678,3.161 -3.366,2.276 -6.602,1.075 -10.444,-0.562 c -0.532,-0.236 -1.06,-0.467 -1.603,-0.719 0,0 4.993,1.442 12.047,1.281"
             style="fill:#192c4e;fill-opacity:1;fill-rule:nonzero;stroke:none"
             id="path260"
             inkscape:connector-curvature="0" /></g><g
           id="g262"><g
             id="g264" /><g
             id="g270"><g
               clip-path="url(#clipPath266)"
               id="g272"><g
                 transform="translate(192.7537,414.6537)"
                 id="g274"><path
                   d="M 0,0 C -0.004,-0.002 -0.007,-0.004 -0.011,-0.007 L -7.96,-2.088 c -7.833,-3.728 -15.059,-8.043 -21.784,-13.1 -5.151,-3.874 -9.727,-8.128 -14.816,-12.04 -4.806,-3.695 -10.914,-6.966 -17.046,-9.334 15.432,-0.551 26.35,8.725 35.381,16.891 7.368,6.663 15.247,12.425 24.614,17.49 1.645,0.89 3.375,1.992 5.129,3.138 C 1.668,0.47 0.466,0.139 0.466,0.139 L 0,0 Z"
                   style="fill:#7ccced;fill-opacity:1;fill-rule:nonzero;stroke:none"
                   id="path276"
                   inkscape:connector-curvature="0" /></g></g></g></g><g
           id="g278"><g
             id="g280" /><g
             id="g286"><g
               clip-path="url(#clipPath282)"
               id="g288"><g
                 transform="translate(200.9327,416.8042)"
                 id="g290"><path
                   d="m 0,0 c -2.605,-2.097 -4.15,-3.453 -4.15,-3.453 l -12.538,-10.768 -11.727,-10.048 c -3.079,-3.203 -10.729,-7.929 -10.729,-7.929 -4.334,-2.826 -10.5,-4.106 -10.5,-4.106 0,0 1.922,-0.123 5.684,0.293 0,0 3.182,0.2 8.892,1.933 0,0 7.964,2.255 16.782,7.649 0,0 6.136,3.498 14.213,10.626 L 15.385,1.506 c 0,0 0.792,0.597 1.931,1.451 C 13.73,2.84 11.784,2.566 11.784,2.566 8.646,2.125 4.205,1.051 0,0"
                   style="fill:#7ccced;fill-opacity:1;fill-rule:nonzero;stroke:none"
                   id="path292"
                   inkscape:connector-curvature="0" /></g></g></g></g><g
           id="g294"><g
             id="g296" /><g
             id="g302"><g
               clip-path="url(#clipPath298)"
               id="g304"><g
                 transform="translate(224.2362,424.9212)"
                 id="g306"><path
                   d="M 0,0 C 0.373,0.021 0.727,0.04 1.071,0.058 1.079,0.064 1.089,0.071 1.098,0.078 2.994,1.429 6.814,4.214 8.872,5.717 8.037,5.76 7.548,5.783 7.548,5.783 7.474,5.785 7.404,5.784 7.331,5.786 0.276,5.947 -4.717,4.505 -4.717,4.505 L -10.65,1.119 c -3.656,-2.252 -5.056,-3.383 -6.296,-4.296 8.767,2.92 14.139,2.974 14.139,2.974 C -1.863,-0.12 -0.922,-0.053 0,0"
                   style="fill:#7ccced;fill-opacity:1;fill-rule:nonzero;stroke:none"
                   id="path308"
                   inkscape:connector-curvature="0" /></g></g></g></g><g
           id="g310"><g
             id="g312" /><g
             id="g318"><g
               clip-path="url(#clipPath314)"
               id="g320"><g
                 transform="translate(241.2669,436.324)"
                 id="g322"><path
                   d="m 0,0 c -1.161,-0.167 -2.324,-0.37 -3.477,-0.614 0.227,0.044 0.458,0.089 0.699,0.134 C -1.817,-0.331 -0.279,-0.051 0,0"
                   style="fill:#7ccced;fill-opacity:1;fill-rule:nonzero;stroke:none"
                   id="path324"
                   inkscape:connector-curvature="0" /></g></g></g></g><g
           id="g326"
           transform="translate(241.3154,436.3329)"><path
             d="M 0,0 C 0,0 -0.02,-0.004 -0.048,-0.009 0.123,0.016 0.295,0.048 0.467,0.07 0.183,0.028 0,0 0,0"
             style="fill:#192c4e;fill-opacity:1;fill-rule:nonzero;stroke:none"
             id="path328"
             inkscape:connector-curvature="0" /></g><g
           id="g330"><g
             id="g332" /><g
             id="g338"><g
               clip-path="url(#clipPath334)"
               id="g340"><g
                 transform="translate(241.3154,436.3329)"
                 id="g342"><path
                   d="M 0,0 C 0,0 -0.02,-0.004 -0.048,-0.009 0.123,0.016 0.295,0.048 0.467,0.07 0.183,0.028 0,0 0,0"
                   style="fill:#7ccced;fill-opacity:1;fill-rule:nonzero;stroke:none"
                   id="path344"
                   inkscape:connector-curvature="0" /></g></g></g></g><g
           id="g346"><g
             id="g348" /><g
             id="g354"><g
               clip-path="url(#clipPath350)"
               id="g356"><g
                 transform="translate(254.8589,440.8393)"
                 id="g358"><path
                   d="m 0,0 c -0.18,-0.022 -1.373,-0.232 -1.544,-0.251 l -4.305,-0.878 c -1.581,-0.908 -3.194,-1.89 -4.838,-2.969 0.7,0.091 1.339,0.165 1.653,0.175 0,0 0.258,0.022 0.684,0.055 1.281,0.097 4.084,0.293 6.016,0.294 1.926,0.002 3.707,-0.072 5.236,-0.171 1.596,1.407 3.217,2.783 4.837,4.092 C 4.187,0.473 1.956,0.236 0,0"
                   style="fill:#7ccced;fill-opacity:1;fill-rule:nonzero;stroke:none"
                   id="path360"
                   inkscape:connector-curvature="0" /></g></g></g></g><g
           id="g362"><g
             id="g364" /><g
             id="g370"><g
               clip-path="url(#clipPath366)"
               id="g372"><g
                 transform="translate(235.7044,430.4955)"
                 id="g374"><path
                   d="m 0,0 c -1.202,-0.988 -2.407,-2.019 -3.613,-3.111 l -2.315,-2.263 c 0.939,0.008 1.758,-0.001 2.535,-0.017 0,0 1.605,-0.022 2.041,-0.029 0.653,-0.009 1.195,-0.036 1.625,-0.055 2.382,-0.107 5.598,-0.54 8.242,-0.95 1.588,1.641 3.379,3.455 5.308,5.344 C 10.518,-0.72 6.686,-0.427 3.43,-0.212 2.18,-0.13 1.018,-0.059 0,0"
                   style="fill:#7ccced;fill-opacity:1;fill-rule:nonzero;stroke:none"
                   id="path376"
                   inkscape:connector-curvature="0" /></g></g></g></g><g
           id="g378"><g
             id="g380" /><g
             id="g386"><g
               clip-path="url(#clipPath382)"
               id="g388"><g
                 transform="translate(229.083,418.8591)"
                 id="g390"><path
                   d="m 0,0 c -1.846,0.266 -3.496,0.458 -4.983,0.6 -3.46,-3.826 -16.657,-18.32 -21.431,-22.152 0,0 -11.321,-11.782 -31.77,-15.914 0,0 11.271,-1.096 23.987,2.691 0,0 14.539,4.133 23.988,12.625 0,0 3.445,3.143 4.751,4.594 l 7.481,8.585 6.057,6.612 c 0,0 0.253,0.286 0.717,0.8 -0.195,0.045 -0.31,0.072 -0.31,0.072 C 5.299,-0.839 2.485,-0.357 0,0"
                   style="fill:#7ccced;fill-opacity:1;fill-rule:nonzero;stroke:none"
                   id="path392"
                   inkscape:connector-curvature="0" /></g></g></g></g><g
           id="g394"
           transform="translate(246.3573,415.7305)"><path
             d="m 0,0 c 2.52,-0.352 5.179,-0.601 7.378,-0.527 0,0 8.46,-0.013 13.023,2.571 0,0 4.318,2.017 6.336,5.191 0,0 -5.265,-1.553 -11.072,-1.139 0,0 -4.406,0.221 -10.999,1.139 -0.645,0.09 -1.303,0.184 -1.988,0.288 0,0 -2.108,0.397 -4.815,0.817 C -5.128,5.249 -7.391,2.775 -8.478,1.57 -7.445,1.333 -3.893,0.544 0,0"
             style="fill:#20518d;fill-opacity:1;fill-rule:nonzero;stroke:none"
             id="path396"
             inkscape:connector-curvature="0" /></g><g
           id="g398"
           transform="translate(229.7767,425.1213)"><path
             d="M 0,0 C -1.222,-0.01 -2.654,-0.05 -4.47,-0.142 -6.205,-1.38 -9.448,-3.8 -11.528,-5.36 c 0.207,0.007 0.417,0.014 0.634,0.019 1.425,-0.029 3.16,-0.125 5.218,-0.321 0.537,0.594 0.847,0.939 0.847,0.939 L 0,0 Z"
             style="fill:#20518d;fill-opacity:1;fill-rule:nonzero;stroke:none"
             id="path400"
             inkscape:connector-curvature="0" /></g><g
           id="g402"
           transform="translate(206.6134,421.2595)"><path
             d="M 0,0 C 0.229,0.158 0.451,0.318 0.677,0.485 0.063,0.28 -0.567,0.063 -1.214,-0.171 c -0.001,-10e-4 -0.003,-0.002 -0.004,-0.003 10e-4,0 0.008,0.002 0.008,0.002 -0.003,-0.001 -0.006,-0.002 -0.009,-0.003 -0.002,-0.002 -0.005,-0.004 -0.007,-0.006 -0.004,-0.002 -0.004,-0.002 -0.009,-0.003 0.005,0.004 0.01,0.009 0.016,0.013 -0.081,-0.032 -0.161,-0.068 -0.242,-0.1 -0.125,-0.048 -0.293,-0.115 -0.491,-0.196 -2.694,-1.383 -5.573,-3.34 -8.39,-5.182 1.288,0.34 2.888,0.754 4.625,1.188 l 0,-0.003 c 0.012,0.003 0.024,0.006 0.036,0.009 0.774,0.622 1.637,1.308 2.586,2.046 L 0,0 Z"
             style="fill:#20518d;fill-opacity:1;fill-rule:nonzero;stroke:none"
             id="path404"
             inkscape:connector-curvature="0" /></g><g
           id="g406"
           transform="translate(195.4742,417.1019)"><path
             d="m 0,0 c -1.369,-0.521 -2.833,-1.087 -4.31,-1.689 -1.835,-0.769 -3.64,-1.565 -5.411,-2.392 -0.101,-0.048 -0.206,-0.096 -0.315,-0.146 -0.216,-0.101 -0.429,-0.206 -0.644,-0.309 l 7.948,2.081 c 0.004,0.002 0.008,0.005 0.011,0.007 l 0.466,0.139 c 0,0 1.203,0.331 3.052,0.818 C 3.614,0.351 6.493,2.307 9.188,3.691 7.653,3.068 4.042,1.537 0,0"
             style="fill:#192c4e;fill-opacity:1;fill-rule:nonzero;stroke:none"
             id="path408"
             inkscape:connector-curvature="0" /></g><g
           id="g410"
           transform="translate(224.2362,424.9212)"><path
             d="m 0,0 c -0.922,-0.053 -1.863,-0.12 -2.807,-0.203 0,0 -5.372,-0.054 -14.139,-2.974 -0.226,-0.167 -0.448,-0.327 -0.677,-0.485 l -3.095,-2.409 c -0.949,-0.738 -1.812,-1.423 -2.586,-2.046 4.205,1.051 8.647,2.125 11.785,2.566 0,0 1.946,0.274 5.532,0.391 2.08,1.56 5.322,3.98 7.058,5.218 C 0.727,0.04 0.373,0.021 0,0"
             style="fill:#192c4e;fill-opacity:1;fill-rule:nonzero;stroke:none"
             id="path412"
             inkscape:connector-curvature="0" /></g><g
           id="g414"
           transform="translate(234.3523,425.076)"><path
             d="m 0,0 c -0.436,0.006 -2.041,0.029 -2.041,0.029 -0.777,0.015 -1.596,0.024 -2.535,0.016 l -4.829,-4.723 c 0,0 -0.31,-0.345 -0.847,-0.939 1.487,-0.142 3.137,-0.334 4.983,-0.6 2.484,-0.357 5.299,-0.839 8.487,-1.487 0,0 0.115,-0.027 0.309,-0.072 1.087,1.205 3.35,3.679 6.341,6.771 -2.645,0.41 -5.861,0.843 -8.243,0.949 C 1.195,-0.037 0.653,-0.01 0,0"
             style="fill:#192c4e;fill-opacity:1;fill-rule:nonzero;stroke:none"
             id="path416"
             inkscape:connector-curvature="0" /></g><g
           id="g418"
           transform="translate(253.6269,428.8776)"><path
             d="m 0,0 c 0,0 0.641,-0.094 1.55,-0.231 0.849,-0.128 1.933,-0.294 2.956,-0.456 5.02,-0.797 16.685,-1.544 20.703,-0.897 0,0 10.181,1.353 14.3,5.662 0,0 -6.435,-0.384 -13.74,0.798 0,0 -15.546,2.717 -16.39,2.817 0,0 -0.466,0.071 -1.288,0.168 C 7.173,7.969 5.803,8.108 4.134,8.217 1.254,5.677 -1.543,3.042 -4.1,0.537 -2.587,0.372 -1.186,0.193 0,0"
             style="fill:#20518d;fill-opacity:1;fill-rule:nonzero;stroke:none"
             id="path420"
             inkscape:connector-curvature="0" /></g><g
           id="g422"><g
             id="g424" /><g
             id="g430"><g
               clip-path="url(#clipPath426)"
               id="g432"><g
                 transform="translate(231.6195,434.1074)"
                 id="g434"><path
                   d="M 0,0 C -0.237,-0.076 -0.484,-0.158 -0.73,-0.239 1.437,0.448 3.779,1.096 6.171,1.602 4.281,1.231 2.8,0.865 0,0"
                   style="fill:#7ccced;fill-opacity:1;fill-rule:nonzero;stroke:none"
                   id="path436"
                   inkscape:connector-curvature="0" /></g></g></g></g><g
           id="g438"
           transform="translate(246.5094,436.9709)"><path
             d="m 0,0 c -0.427,-0.033 -0.684,-0.054 -0.684,-0.054 -0.315,-0.011 -0.954,-0.085 -1.653,-0.176 -2.765,-1.816 -5.604,-3.89 -8.468,-6.245 1.018,-0.059 2.18,-0.13 3.43,-0.213 3.256,-0.215 7.088,-0.508 10.393,-0.868 2.557,2.504 5.353,5.14 8.234,7.679 -1.53,0.1 -3.31,0.173 -5.236,0.172 C 4.084,0.293 1.281,0.098 0,0"
             style="fill:#192c4e;fill-opacity:1;fill-rule:nonzero;stroke:none"
             id="path440"
             inkscape:connector-curvature="0" /></g><g
           id="g442"
           transform="translate(273.5681,449.2114)"><path
             d="m 0,0 c 0,0 -2.195,-0.42 -5.003,-1.164 -2.175,-0.61 -4.814,-1.466 -7.79,-2.645 -2.655,-1.122 -4.273,-1.829 -4.273,-1.829 0,0 -1.1,-0.497 -2.548,-1.229 -0.371,-0.187 -0.712,-0.351 -1.056,-0.519 -1.266,-0.649 -2.564,-1.354 -3.888,-2.115 l 4.305,0.877 c 0.171,0.02 1.364,0.23 1.544,0.252 1.955,0.236 4.187,0.473 7.739,0.347 4.349,3.513 8.69,6.531 12.502,8.3 C 1.022,0.19 0.511,0.099 0,0"
             style="fill:#192c4e;fill-opacity:1;fill-rule:nonzero;stroke:none"
             id="path444"
             inkscape:connector-curvature="0" /></g></g></g></g></svg>