<?xml version="1.0" encoding="UTF-8" standalone="no"?>
<!-- Created with Inkscape (http://www.inkscape.org/) -->

<svg
   xmlns:dc="http://purl.org/dc/elements/1.1/"
   xmlns:cc="http://creativecommons.org/ns#"
   xmlns:rdf="http://www.w3.org/1999/02/22-rdf-syntax-ns#"
   xmlns:svg="http://www.w3.org/2000/svg"
   xmlns="http://www.w3.org/2000/svg"
   xmlns:sodipodi="http://sodipodi.sourceforge.net/DTD/sodipodi-0.dtd"
   xmlns:inkscape="http://www.inkscape.org/namespaces/inkscape"
   id="svg2"
   version="1.1"
   inkscape:version="0.91 r13725"
   xml:space="preserve"
   width="273.45251"
   height="128.29375"
   viewBox="0 0 273.45251 128.29375"
   sodipodi:docname="erdc.svg"><metadata
     id="metadata8"><rdf:RDF><cc:Work
         rdf:about=""><dc:format>image/svg+xml</dc:format><dc:type
           rdf:resource="http://purl.org/dc/dcmitype/StillImage" /><dc:title></dc:title></cc:Work></rdf:RDF></metadata><defs
     id="defs6"><clipPath
       clipPathUnits="userSpaceOnUse"
       id="clipPath16"><path
         d="m 0.059998,102.6 218.702002,0 0,-102.6 -218.702002,0 0,102.6 z"
         id="path18"
         inkscape:connector-curvature="0" /></clipPath><clipPath
       clipPathUnits="userSpaceOnUse"
       id="clipPath40"><path
         d="m 0.059998,102.6 218.702002,0 0,-102.6 -218.702002,0 0,102.6 z"
         id="path42"
         inkscape:connector-curvature="0" /></clipPath><clipPath
       clipPathUnits="userSpaceOnUse"
       id="clipPath138"><path
         d="m 0.059998,102.6 218.702002,0 0,-102.6 -218.702002,0 0,102.6 z"
         id="path140"
         inkscape:connector-curvature="0" /></clipPath></defs><sodipodi:namedview
     pagecolor="#ffffff"
     bordercolor="#666666"
     borderopacity="1"
     objecttolerance="10"
     gridtolerance="10"
     guidetolerance="10"
     inkscape:pageopacity="0"
     inkscape:pageshadow="2"
     inkscape:window-width="640"
     inkscape:window-height="480"
     id="namedview4"
     showgrid="false"
     inkscape:zoom="1.1775353"
     inkscape:cx="136.72626"
     inkscape:cy="64.146873"
     inkscape:window-x="51"
     inkscape:window-y="24"
     inkscape:window-maximized="0"
     inkscape:current-layer="g10" /><g
     id="g10"
     inkscape:groupmode="layer"
     inkscape:label="erdc"
     transform="matrix(1.25,0,0,-1.25,0,128.29375)"><g
       id="g12"><g
         id="g14"
         clip-path="url(#clipPath16)"><g
           id="g20"
           transform="translate(0,54.773)"><path
             d="m 0,0 44.411,0 1.995,9.391 -35.019,0 2.277,10.713 33.977,0 1.641,7.724 -33.976,0 2.248,10.574 -9.3914,0 L 0,0"
             style="fill:#004d28;fill-opacity:1;fill-rule:nonzero;stroke:none"
             id="path22"
             inkscape:connector-curvature="0" /></g></g></g><g
       id="g24"
       transform="translate(67.752,93.106)"><path
         d="m 0,0 26.211,0 c 4.104,0 4.187,-2.229 3.196,-6.89 L 28.919,-9.184 C 28.031,-13.359 26.4,-14.82 23.062,-14.82 l -26.212,0 L 0,0 Z m -17.607,-38.333 9.461,0 3.326,15.652 11.949,0 13.23,-15.652 13.219,0 -14.383,15.792 c 11.826,0 16.771,2.644 19.254,14.33 l 0.621,2.923 c 0.429,2.018 0.683,3.796 0.75,5.357 l -49.265,0 -8.162,-38.402"
         style="fill:#004d28;fill-opacity:1;fill-rule:nonzero;stroke:none"
         id="path26"
         inkscape:connector-curvature="0" /></g><g
       id="g28"
       transform="translate(157.619,84.463)"><path
         d="m 0,0 -2.478,-11.656 c -1.207,-5.8 -2.643,-8.644 -9.657,-8.644 l -27.062,0 6.167,29.012 -9.461,0 -8.163,-38.402 35.363,0 c 11.618,0 19.168,3.756 21.669,15.515 L 9.404,0.067 c 0.707,3.322 0.754,6.202 0.229,8.645 l -15.601,0 C -0.543,8.712 1.219,5.732 0,0"
         style="fill:#004d28;fill-opacity:1;fill-rule:nonzero;stroke:none"
         id="path30"
         inkscape:connector-curvature="0" /></g><g
       id="g32"
       transform="translate(174.645,87.121)"><path
         d="m 0,0 -3.578,-16.833 c -2.529,-11.898 0.18,-15.516 11.589,-15.516 l 25.933,0 1.997,9.391 -25.862,0 c -4.801,0 -5.205,2.019 -4.348,6.054 L 9.323,0 c 0.961,4.522 2.745,6.054 6.923,6.054 l -14.527,0 C 1.056,4.328 0.495,2.327 0,0"
         style="fill:#004d28;fill-opacity:1;fill-rule:nonzero;stroke:none"
         id="path34"
         inkscape:connector-curvature="0" /></g><g
       id="g36"><g
         id="g38"
         clip-path="url(#clipPath40)"><g
           id="g44"
           transform="translate(10.173,102.635)"><path
             d="M 0,0 -2.0107,-9.46 42.4,-9.46 44.411,0 0,0"
             style="fill:#e92729;fill-opacity:1;fill-rule:nonzero;stroke:none"
             id="path46"
             inkscape:connector-curvature="0" /></g><g
           id="g48"
           transform="translate(96.268,102.635)"><path
             d="m 0,0 -35.95,0 -2.011,-9.46 49.265,0 C 11.595,-2.629 8.266,0 0,0"
             style="fill:#e92729;fill-opacity:1;fill-rule:nonzero;stroke:none"
             id="path50"
             inkscape:connector-curvature="0" /></g><g
           id="g52"
           transform="translate(152.502,102.635)"><path
             d="m 0,0 -35.364,0 -2.01,-9.46 52.124,0 C 13.42,-3.306 8.316,0 0,0"
             style="fill:#e92729;fill-opacity:1;fill-rule:nonzero;stroke:none"
             id="path54"
             inkscape:connector-curvature="0" /></g><g
           id="g56"
           transform="translate(176.364,93.175)"><path
             d="m 0,0 40.387,0 2.011,9.46 -25.933,0 C 7.277,9.46 2.746,7.15 0,0"
             style="fill:#e92729;fill-opacity:1;fill-rule:nonzero;stroke:none"
             id="path58"
             inkscape:connector-curvature="0" /></g></g></g><g
       id="g60"
       transform="translate(0.07666,28.273)"><path
         d="m 0,0 0,15.39 11.128,0 0,-1.816 -9.0914,0 0,-4.714 8.5134,0 0,-1.805 -8.5134,0 0,-5.239 9.4484,0 L 11.485,0 0,0"
         style="fill:#221e1f;fill-opacity:1;fill-rule:nonzero;stroke:none"
         id="path62"
         inkscape:connector-curvature="0" /></g><g
       id="g64"
       transform="translate(13.811,28.273)"><path
         d="m 0,0 0,11.149 1.701,0 0,-1.585 c 0.819,1.225 2.002,1.837 3.548,1.837 0.672,0 1.29,-0.121 1.853,-0.362 C 7.666,10.797 8.087,10.48 8.367,10.089 8.647,9.697 8.843,9.231 8.955,8.692 9.025,8.342 9.06,7.73 9.06,6.855 L 9.06,0 7.17,0 l 0,6.782 C 7.17,7.552 7.097,8.127 6.95,8.509 6.803,8.89 6.542,9.194 6.168,9.422 5.793,9.649 5.354,9.763 4.851,9.763 4.045,9.763 3.351,9.508 2.767,8.997 2.182,8.486 1.89,7.517 1.89,6.089 L 1.89,0 0,0"
         style="fill:#221e1f;fill-opacity:1;fill-rule:nonzero;stroke:none"
         id="path66"
         inkscape:connector-curvature="0" /></g><g
       id="g68"
       transform="translate(26.664,34.047)"><path
         d="m 0,0 c 0,-1.463 0.291,-2.53 0.872,-3.202 0.581,-0.671 1.308,-1.007 2.183,-1.007 0.868,0 1.596,0.334 2.184,1.002 0.588,0.668 0.882,1.716 0.882,3.144 0,1.365 -0.303,2.394 -0.909,3.087 C 4.607,3.716 3.877,4.063 3.023,4.063 2.184,4.063 1.47,3.722 0.882,3.039 0.294,2.357 0,1.344 0,0 Z m -1.564,-6.698 1.837,-0.273 c 0.077,-0.567 0.291,-0.98 0.64,-1.238 0.469,-0.35 1.11,-0.526 1.922,-0.526 0.874,0 1.55,0.176 2.026,0.526 0.476,0.349 0.798,0.839 0.966,1.469 0.098,0.385 0.143,1.194 0.136,2.425 -0.826,-0.973 -1.855,-1.459 -3.086,-1.459 -1.533,0 -2.719,0.553 -3.559,1.658 -0.84,1.107 -1.26,2.433 -1.26,3.98 0,1.063 0.193,2.045 0.578,2.944 0.385,0.9 0.943,1.594 1.674,2.084 0.731,0.49 1.59,0.735 2.577,0.735 1.316,0 2.401,-0.532 3.255,-1.596 l 0,1.344 1.742,0 0,-9.637 c 0,-1.735 -0.176,-2.966 -0.53,-3.691 -0.353,-0.723 -0.913,-1.295 -1.68,-1.715 -0.766,-0.42 -1.709,-0.63 -2.829,-0.63 -1.329,0 -2.404,0.299 -3.223,0.897 -0.818,0.599 -1.214,1.499 -1.186,2.703"
         style="fill:#221e1f;fill-opacity:1;fill-rule:nonzero;stroke:none"
         id="path70"
         inkscape:connector-curvature="0" /></g><path
       d="m 38.981,28.273 -1.8897,0 0,11.149 1.8897,0 0,-11.149 z m -1.89,0 z m 1.89,13.217 -1.8897,0 0,2.1733 1.8897,0 0,-2.1733 z"
       style="fill:#221e1f;fill-opacity:1;fill-rule:nonzero;stroke:none"
       id="path72"
       inkscape:connector-curvature="0" /><g
       id="g74"
       transform="translate(41.535,28.273)"><path
         d="m 0,0 0,11.149 1.701,0 0,-1.585 c 0.819,1.225 2.002,1.837 3.548,1.837 0.672,0 1.29,-0.121 1.853,-0.362 C 7.666,10.797 8.087,10.48 8.367,10.089 8.647,9.697 8.843,9.231 8.955,8.692 9.025,8.342 9.06,7.73 9.06,6.855 L 9.06,0 7.17,0 l 0,6.782 C 7.17,7.552 7.097,8.127 6.95,8.509 6.803,8.89 6.542,9.194 6.168,9.422 5.793,9.649 5.355,9.763 4.851,9.763 4.045,9.763 3.351,9.508 2.767,8.997 2.182,8.486 1.89,7.517 1.89,6.089 L 1.89,0 0,0"
         style="fill:#221e1f;fill-opacity:1;fill-rule:nonzero;stroke:none"
         id="path76"
         inkscape:connector-curvature="0" /></g><g
       id="g78"
       transform="translate(54.597,34.918)"><path
         d="M 0,0 6.226,0 C 6.142,0.938 5.904,1.641 5.512,2.11 4.91,2.838 4.129,3.202 3.171,3.202 2.303,3.202 1.573,2.911 0.982,2.33 0.39,1.75 0.063,0.973 0,0 Z M 6.205,-3.055 8.157,-3.297 C 7.849,-4.437 7.279,-5.323 6.446,-5.952 5.613,-6.583 4.549,-6.898 3.255,-6.898 c -1.631,0 -2.924,0.502 -3.88,1.507 -0.955,1.004 -1.433,2.413 -1.433,4.225 0,1.876 0.484,3.332 1.45,4.368 0.965,1.035 2.218,1.553 3.757,1.553 1.492,0 2.709,-0.507 3.654,-1.522 C 7.748,2.218 8.22,0.791 8.22,-1.05 8.22,-1.162 8.217,-1.33 8.21,-1.554 l -8.314,0 c 0.069,-1.225 0.416,-2.163 1.039,-2.813 0.623,-0.652 1.399,-0.977 2.33,-0.977 0.693,0 1.284,0.182 1.774,0.546 0.49,0.364 0.878,0.946 1.166,1.743"
         style="fill:#221e1f;fill-opacity:1;fill-rule:nonzero;stroke:none"
         id="path80"
         inkscape:connector-curvature="0" /></g><g
       id="g82"
       transform="translate(66.232,34.918)"><path
         d="M 0,0 6.226,0 C 6.142,0.938 5.904,1.641 5.512,2.11 4.91,2.838 4.129,3.202 3.171,3.202 2.303,3.202 1.573,2.911 0.982,2.33 0.39,1.75 0.063,0.973 0,0 Z M 6.205,-3.055 8.157,-3.297 C 7.849,-4.437 7.279,-5.323 6.446,-5.952 5.613,-6.583 4.549,-6.898 3.255,-6.898 c -1.631,0 -2.924,0.502 -3.879,1.507 -0.956,1.004 -1.434,2.413 -1.434,4.225 0,1.876 0.484,3.332 1.45,4.368 0.965,1.035 2.218,1.553 3.757,1.553 1.492,0 2.709,-0.507 3.654,-1.522 C 7.748,2.218 8.22,0.791 8.22,-1.05 8.22,-1.162 8.217,-1.33 8.21,-1.554 l -8.315,0 c 0.07,-1.225 0.417,-2.163 1.04,-2.813 0.623,-0.652 1.4,-0.977 2.33,-0.977 0.693,0 1.284,0.182 1.774,0.546 0.49,0.364 0.878,0.946 1.166,1.743"
         style="fill:#221e1f;fill-opacity:1;fill-rule:nonzero;stroke:none"
         id="path84"
         inkscape:connector-curvature="0" /></g><g
       id="g86"
       transform="translate(76.419,28.273)"><path
         d="m 0,0 0,11.149 1.7,0 0,-1.69 c 0.434,0.79 0.835,1.312 1.202,1.564 0.368,0.252 0.772,0.378 1.213,0.378 0.637,0 1.284,-0.203 1.942,-0.609 L 5.406,9.039 C 4.944,9.311 4.482,9.448 4.021,9.448 3.607,9.448 3.237,9.324 2.908,9.076 2.579,8.827 2.344,8.482 2.204,8.041 1.994,7.37 1.89,6.635 1.89,5.837 L 1.89,0 0,0"
         style="fill:#221e1f;fill-opacity:1;fill-rule:nonzero;stroke:none"
         id="path88"
         inkscape:connector-curvature="0" /></g><g
       id="g90"
       transform="translate(91.236,36.87)"><path
         d="m 0,0 4.378,0 c 0.931,0 1.658,0.096 2.184,0.289 0.525,0.192 0.923,0.5 1.196,0.924 0.273,0.423 0.41,0.883 0.41,1.38 0,0.728 -0.265,1.326 -0.793,1.796 C 6.847,4.857 6.013,5.092 4.871,5.092 L 0,5.092 0,0 Z m -2.036,-8.598 0,15.39 6.823,0 C 6.159,6.792 7.202,6.654 7.916,6.378 8.63,6.101 9.201,5.613 9.627,4.913 10.054,4.213 10.268,3.44 10.268,2.593 10.268,1.501 9.914,0.581 9.207,-0.168 8.5,-0.917 7.408,-1.393 5.932,-1.596 6.471,-1.854 6.88,-2.11 7.16,-2.362 7.755,-2.908 8.318,-3.59 8.85,-4.409 l 2.678,-4.189 -2.562,0 -2.037,3.202 c -0.595,0.924 -1.084,1.631 -1.47,2.121 -0.385,0.49 -0.73,0.833 -1.034,1.029 -0.305,0.196 -0.613,0.332 -0.929,0.409 -0.231,0.049 -0.608,0.073 -1.134,0.073 l -2.362,0 0,-6.834 -2.036,0"
         style="fill:#221e1f;fill-opacity:1;fill-rule:nonzero;stroke:none"
         id="path92"
         inkscape:connector-curvature="0" /></g><g
       id="g94"
       transform="translate(105.559,34.918)"><path
         d="M 0,0 6.225,0 C 6.141,0.938 5.903,1.641 5.511,2.11 4.91,2.838 4.129,3.202 3.17,3.202 2.302,3.202 1.573,2.911 0.981,2.33 0.39,1.75 0.063,0.973 0,0 Z M 6.204,-3.055 8.157,-3.297 C 7.849,-4.437 7.279,-5.323 6.446,-5.952 5.613,-6.583 4.549,-6.898 3.254,-6.898 c -1.63,0 -2.923,0.502 -3.878,1.507 -0.956,1.004 -1.434,2.413 -1.434,4.225 0,1.876 0.483,3.332 1.449,4.368 0.966,1.035 2.219,1.553 3.758,1.553 1.491,0 2.709,-0.507 3.653,-1.522 0.946,-1.015 1.417,-2.442 1.417,-4.283 0,-0.112 -0.003,-0.28 -0.009,-0.504 l -8.315,0 c 0.069,-1.225 0.416,-2.163 1.039,-2.813 0.623,-0.652 1.4,-0.977 2.33,-0.977 0.694,0 1.285,0.182 1.775,0.546 0.49,0.364 0.879,0.946 1.165,1.743"
         style="fill:#221e1f;fill-opacity:1;fill-rule:nonzero;stroke:none"
         id="path96"
         inkscape:connector-curvature="0" /></g><g
       id="g98"
       transform="translate(115.01,31.601)"><path
         d="m 0,0 1.869,0.294 c 0.104,-0.749 0.396,-1.323 0.876,-1.722 0.479,-0.399 1.15,-0.598 2.011,-0.598 0.868,0 1.511,0.176 1.931,0.53 0.42,0.353 0.63,0.767 0.63,1.244 0,0.427 -0.185,0.763 -0.556,1.008 C 6.502,0.924 5.858,1.137 4.829,1.396 3.443,1.746 2.483,2.048 1.947,2.304 1.412,2.56 1.006,2.913 0.729,3.364 0.453,3.816 0.315,4.314 0.315,4.86 c 0,0.497 0.113,0.957 0.341,1.381 0.228,0.423 0.537,0.775 0.929,1.055 0.295,0.217 0.695,0.4 1.202,0.551 0.508,0.151 1.052,0.226 1.633,0.226 0.875,0 1.642,-0.126 2.304,-0.378 C 7.386,7.443 7.874,7.102 8.188,6.671 8.504,6.241 8.72,5.665 8.84,4.944 L 6.992,4.692 C 6.908,5.266 6.665,5.714 6.262,6.036 5.859,6.358 5.291,6.519 4.556,6.519 3.688,6.519 3.069,6.376 2.698,6.089 2.327,5.802 2.141,5.466 2.141,5.081 2.141,4.836 2.219,4.615 2.373,4.419 2.526,4.216 2.768,4.048 3.096,3.916 3.286,3.846 3.843,3.685 4.766,3.433 6.103,3.076 7.035,2.783 7.564,2.556 8.093,2.329 8.507,1.998 8.807,1.564 9.109,1.13 9.26,0.591 9.26,-0.053 9.26,-0.683 9.076,-1.275 8.708,-1.832 8.341,-2.389 7.81,-2.819 7.118,-3.123 6.425,-3.428 5.641,-3.58 4.766,-3.58 3.317,-3.58 2.214,-3.279 1.454,-2.678 0.694,-2.075 0.21,-1.183 0,0"
         style="fill:#221e1f;fill-opacity:1;fill-rule:nonzero;stroke:none"
         id="path100"
         inkscape:connector-curvature="0" /></g><g
       id="g102"
       transform="translate(127.621,34.918)"><path
         d="M 0,0 6.226,0 C 6.142,0.938 5.903,1.641 5.512,2.11 4.91,2.838 4.13,3.202 3.171,3.202 2.303,3.202 1.573,2.911 0.982,2.33 0.391,1.75 0.064,0.973 0,0 Z M 6.204,-3.055 8.157,-3.297 C 7.85,-4.437 7.279,-5.323 6.446,-5.952 5.613,-6.583 4.55,-6.898 3.255,-6.898 c -1.631,0 -2.924,0.502 -3.879,1.507 -0.956,1.004 -1.434,2.413 -1.434,4.225 0,1.876 0.484,3.332 1.45,4.368 C 0.358,4.237 1.61,4.755 3.15,4.755 4.641,4.755 5.858,4.248 6.803,3.233 7.748,2.218 8.22,0.791 8.22,-1.05 8.22,-1.162 8.217,-1.33 8.21,-1.554 l -8.314,0 c 0.069,-1.225 0.416,-2.163 1.039,-2.813 0.623,-0.652 1.399,-0.977 2.33,-0.977 0.693,0 1.285,0.182 1.774,0.546 0.49,0.364 0.879,0.946 1.165,1.743"
         style="fill:#221e1f;fill-opacity:1;fill-rule:nonzero;stroke:none"
         id="path104"
         inkscape:connector-curvature="0" /></g><g
       id="g106"
       transform="translate(144.946,33.868)"><path
         d="m 0,0 c -0.686,-0.28 -1.715,-0.518 -3.087,-0.714 -0.776,-0.112 -1.326,-0.238 -1.647,-0.378 -0.322,-0.14 -0.571,-0.345 -0.746,-0.614 -0.175,-0.27 -0.262,-0.569 -0.262,-0.898 0,-0.503 0.191,-0.923 0.571,-1.259 0.382,-0.336 0.941,-0.504 1.675,-0.504 0.728,0 1.375,0.159 1.943,0.477 0.566,0.319 0.983,0.754 1.249,1.307 C -0.101,-2.156 0,-1.526 0,-0.693 L 0,0 Z m 0.158,-4.221 c -0.701,-0.594 -1.375,-1.014 -2.021,-1.26 -0.647,-0.245 -1.343,-0.367 -2.084,-0.367 -1.225,0 -2.166,0.299 -2.824,0.898 -0.658,0.598 -0.987,1.363 -0.987,2.294 0,0.546 0.125,1.044 0.373,1.496 0.248,0.451 0.574,0.813 0.976,1.086 0.402,0.273 0.856,0.48 1.359,0.62 0.372,0.098 0.931,0.192 1.68,0.283 1.526,0.182 2.65,0.399 3.37,0.651 0.007,0.259 0.01,0.423 0.01,0.494 0,0.769 -0.178,1.312 -0.535,1.627 -0.483,0.426 -1.2,0.64 -2.152,0.64 -0.889,0 -1.545,-0.156 -1.968,-0.467 C -5.069,3.462 -5.382,2.911 -5.585,2.12 l -1.847,0.252 c 0.168,0.791 0.444,1.43 0.829,1.916 0.385,0.486 0.941,0.861 1.669,1.124 0.728,0.262 1.571,0.393 2.53,0.393 0.952,0 1.726,-0.112 2.32,-0.336 C 0.511,5.245 0.949,4.963 1.229,4.624 1.508,4.285 1.704,3.856 1.817,3.338 1.879,3.016 1.91,2.436 1.91,1.596 l 0,-2.52 c 0,-1.757 0.04,-2.868 0.122,-3.333 0.08,-0.466 0.239,-0.912 0.477,-1.339 l -1.974,0 c -0.196,0.392 -0.322,0.851 -0.377,1.375"
         style="fill:#221e1f;fill-opacity:1;fill-rule:nonzero;stroke:none"
         id="path108"
         inkscape:connector-curvature="0" /></g><g
       id="g110"
       transform="translate(149.442,28.273)"><path
         d="m 0,0 0,11.149 1.701,0 0,-1.69 c 0.434,0.79 0.835,1.312 1.202,1.564 0.367,0.252 0.771,0.378 1.213,0.378 0.636,0 1.284,-0.203 1.941,-0.609 L 5.407,9.039 C 4.945,9.311 4.483,9.448 4.021,9.448 3.608,9.448 3.237,9.324 2.909,9.076 2.579,8.827 2.345,8.482 2.204,8.041 1.995,7.37 1.89,6.635 1.89,5.837 L 1.89,0 0,0"
         style="fill:#221e1f;fill-opacity:1;fill-rule:nonzero;stroke:none"
         id="path112"
         inkscape:connector-curvature="0" /></g><g
       id="g114"
       transform="translate(163.575,32.357)"><path
         d="m 0,0 1.859,-0.242 c -0.204,-1.28 -0.723,-2.283 -1.56,-3.007 -0.836,-0.725 -1.863,-1.087 -3.081,-1.087 -1.525,0 -2.752,0.499 -3.68,1.496 -0.926,0.997 -1.39,2.427 -1.39,4.288 0,1.204 0.199,2.258 0.598,3.16 0.399,0.903 1.006,1.581 1.822,2.032 0.815,0.451 1.702,0.677 2.661,0.677 1.211,0 2.201,-0.306 2.97,-0.919 C 0.97,5.786 1.463,4.917 1.68,3.79 L -0.157,3.506 c -0.175,0.749 -0.485,1.312 -0.93,1.69 -0.444,0.378 -0.981,0.567 -1.611,0.567 -0.951,0 -1.725,-0.341 -2.32,-1.023 C -5.613,4.057 -5.91,2.978 -5.91,1.501 c 0,-1.498 0.287,-2.586 0.86,-3.265 0.575,-0.678 1.324,-1.018 2.247,-1.018 0.742,0 1.362,0.227 1.859,0.682 0.496,0.455 0.811,1.155 0.944,2.1"
         style="fill:#221e1f;fill-opacity:1;fill-rule:nonzero;stroke:none"
         id="path116"
         inkscape:connector-curvature="0" /></g><g
       id="g118"
       transform="translate(166.728,28.273)"><path
         d="m 0,0 0,15.39 1.889,0 0,-5.522 c 0.882,1.022 1.995,1.533 3.339,1.533 0.825,0 1.543,-0.163 2.151,-0.488 C 7.989,10.587 8.424,10.138 8.687,9.564 8.95,8.99 9.081,8.157 9.081,7.065 l 0,-7.065 -1.89,0 0,7.065 C 7.191,8.01 6.986,8.698 6.577,9.128 6.168,9.559 5.588,9.773 4.839,9.773 4.28,9.773 3.752,9.628 3.259,9.338 2.766,9.047 2.415,8.654 2.205,8.157 1.995,7.66 1.889,6.974 1.889,6.1 L 1.889,0 0,0"
         style="fill:#221e1f;fill-opacity:1;fill-rule:nonzero;stroke:none"
         id="path120"
         inkscape:connector-curvature="0" /></g><g
       id="g122"
       transform="translate(191.131,33.868)"><path
         d="m 0,0 c -0.687,-0.28 -1.715,-0.518 -3.087,-0.714 -0.776,-0.112 -1.326,-0.238 -1.648,-0.378 -0.322,-0.14 -0.571,-0.345 -0.746,-0.614 -0.174,-0.27 -0.261,-0.569 -0.261,-0.898 0,-0.503 0.19,-0.923 0.571,-1.259 0.382,-0.336 0.94,-0.504 1.675,-0.504 0.727,0 1.375,0.159 1.942,0.477 0.567,0.319 0.984,0.754 1.249,1.307 C -0.102,-2.156 0,-1.526 0,-0.693 L 0,0 Z m 0.157,-4.221 c -0.7,-0.594 -1.374,-1.014 -2.02,-1.26 -0.648,-0.245 -1.343,-0.367 -2.084,-0.367 -1.225,0 -2.166,0.299 -2.825,0.898 -0.658,0.598 -0.986,1.363 -0.986,2.294 0,0.546 0.124,1.044 0.372,1.496 0.248,0.451 0.574,0.813 0.977,1.086 0.402,0.273 0.855,0.48 1.359,0.62 0.371,0.098 0.931,0.192 1.68,0.283 1.525,0.182 2.649,0.399 3.37,0.651 0.007,0.259 0.01,0.423 0.01,0.494 0,0.769 -0.178,1.312 -0.536,1.627 -0.482,0.426 -1.2,0.64 -2.152,0.64 -0.889,0 -1.545,-0.156 -1.968,-0.467 C -5.069,3.462 -5.382,2.911 -5.585,2.12 l -1.848,0.252 c 0.168,0.791 0.445,1.43 0.829,1.916 0.385,0.486 0.942,0.861 1.669,1.124 0.729,0.262 1.572,0.393 2.531,0.393 0.952,0 1.725,-0.112 2.32,-0.336 C 0.511,5.245 0.948,4.963 1.228,4.624 1.508,4.285 1.704,3.856 1.816,3.338 1.879,3.016 1.91,2.436 1.91,1.596 l 0,-2.52 c 0,-1.757 0.04,-2.868 0.121,-3.333 0.08,-0.466 0.239,-0.912 0.478,-1.339 l -1.974,0 c -0.196,0.392 -0.322,0.851 -0.378,1.375"
         style="fill:#221e1f;fill-opacity:1;fill-rule:nonzero;stroke:none"
         id="path124"
         inkscape:connector-curvature="0" /></g><g
       id="g126"
       transform="translate(195.647,28.273)"><path
         d="m 0,0 0,11.149 1.702,0 0,-1.585 c 0.818,1.225 2.001,1.837 3.547,1.837 0.672,0 1.291,-0.121 1.854,-0.362 C 7.666,10.797 8.087,10.48 8.368,10.089 8.648,9.697 8.843,9.231 8.956,8.692 9.026,8.342 9.06,7.73 9.06,6.855 L 9.06,0 7.171,0 l 0,6.782 c 0,0.77 -0.074,1.345 -0.22,1.727 C 6.803,8.89 6.542,9.194 6.168,9.422 5.793,9.649 5.355,9.763 4.851,9.763 4.046,9.763 3.351,9.508 2.767,8.997 2.182,8.486 1.89,7.517 1.89,6.089 L 1.89,0 0,0"
         style="fill:#221e1f;fill-opacity:1;fill-rule:nonzero;stroke:none"
         id="path128"
         inkscape:connector-curvature="0" /></g><g
       id="g130"
       transform="translate(208.542,33.837)"><path
         d="m 0,0 c 0,-1.428 0.301,-2.496 0.903,-3.202 0.602,-0.707 1.313,-1.06 2.131,-1.06 0.826,0 1.528,0.338 2.105,1.012 0.578,0.676 0.866,1.707 0.866,3.092 0,1.526 -0.294,2.646 -0.882,3.36 C 4.535,3.916 3.812,4.273 2.95,4.273 2.11,4.273 1.408,3.93 0.846,3.244 0.282,2.558 0,1.477 0,0 Z m 5.974,-5.564 0,1.406 C 5.267,-5.263 4.228,-5.816 2.855,-5.816 c -0.888,0 -1.706,0.245 -2.451,0.734 -0.745,0.491 -1.322,1.175 -1.732,2.053 -0.409,0.879 -0.614,1.888 -0.614,3.029 0,1.113 0.185,2.122 0.556,3.029 0.371,0.906 0.928,1.6 1.67,2.084 0.741,0.482 1.57,0.724 2.487,0.724 0.672,0 1.271,-0.142 1.796,-0.425 C 5.092,5.128 5.519,4.759 5.848,4.304 l 0,5.522 1.879,0 0,-15.39 -1.753,0"
         style="fill:#221e1f;fill-opacity:1;fill-rule:nonzero;stroke:none"
         id="path132"
         inkscape:connector-curvature="0" /></g><g
       id="g134"><g
         id="g136"
         clip-path="url(#clipPath138)"><g
           id="g142"
           transform="translate(2.0713,6.0891)"><path
             d="m 0,0 3.2861,0 c 1.0147,0 1.8106,0.0938 2.3882,0.2832 0.5772,0.1895 1.0376,0.4551 1.3804,0.7979 0.4829,0.4834 0.8589,1.1318 1.1283,1.9472 0.27,0.8155 0.404,1.8037 0.404,2.9657 0,1.61 -0.264,2.847 -0.7921,3.711 -0.5288,0.864 -1.1709,1.443 -1.9267,1.737 -0.5459,0.21 -1.4239,0.316 -2.6348,0.316 L 0,11.758 0,0 Z m -2.0366,-1.8164 0,15.3904 5.3013,0 c 1.1972,0 2.1103,-0.074 2.7402,-0.22 0.8818,-0.204 1.6343,-0.571 2.2571,-1.103 0.812,-0.686 1.419,-1.562 1.822,-2.63 0.402,-1.067 0.603,-2.287 0.603,-3.658 0,-1.169 -0.136,-2.2052 -0.41,-3.1075 C 10.005,1.9521 9.655,1.2051 9.228,0.6143 8.801,0.0225 8.334,-0.4434 7.8262,-0.7822 7.3188,-1.1221 6.7065,-1.3789 5.9893,-1.5537 5.2715,-1.7285 4.4477,-1.8164 3.5166,-1.8164 l -5.5532,0"
             style="fill:#221e1f;fill-opacity:1;fill-rule:nonzero;stroke:none"
             id="path144"
             inkscape:connector-curvature="0" /></g></g></g><g
       id="g146"
       transform="translate(16.747,10.918)"><path
         d="M 0,0 6.226,0 C 6.142,0.938 5.904,1.641 5.512,2.11 4.91,2.838 4.129,3.202 3.171,3.202 2.303,3.202 1.573,2.911 0.982,2.33 0.39,1.749 0.063,0.973 0,0 Z M 6.205,-3.0557 8.157,-3.2969 C 7.849,-4.4375 7.279,-5.3232 6.446,-5.9521 5.613,-6.583 4.549,-6.8975 3.255,-6.8975 c -1.631,0 -2.924,0.502 -3.88,1.5069 -0.955,1.0039 -1.433,2.4121 -1.433,4.2256 0,1.875 0.484,3.331 1.45,4.367 0.965,1.035 2.218,1.553 3.757,1.553 1.492,0 2.709,-0.507 3.654,-1.522 C 7.748,2.219 8.22,0.791 8.22,-1.0498 8.22,-1.1621 8.217,-1.3301 8.21,-1.5537 l -8.315,0 c 0.07,-1.2246 0.416,-2.1631 1.039,-2.8135 0.624,-0.6514 1.4,-0.9765 2.331,-0.9765 0.693,0 1.284,0.1816 1.774,0.5459 0.49,0.3642 0.878,0.9453 1.166,1.7421"
         style="fill:#221e1f;fill-opacity:1;fill-rule:nonzero;stroke:none"
         id="path148"
         inkscape:connector-curvature="0" /></g><g
       id="g150"
       transform="translate(30.374,4.2727)"><path
         d="m 0,0 -4.241,11.148 1.994,0 2.394,-6.6753 C 0.406,3.751 0.644,3.0019 0.861,2.2256 1.029,2.8135 1.263,3.5205 1.564,4.3457 l 2.477,6.8023 1.943,0 L 1.764,0 0,0"
         style="fill:#221e1f;fill-opacity:1;fill-rule:nonzero;stroke:none"
         id="path152"
         inkscape:connector-curvature="0" /></g><g
       id="g154"
       transform="translate(39.455,10.918)"><path
         d="M 0,0 6.226,0 C 6.142,0.938 5.904,1.641 5.512,2.11 4.91,2.838 4.129,3.202 3.171,3.202 2.303,3.202 1.573,2.911 0.982,2.33 0.39,1.749 0.063,0.973 0,0 Z M 6.205,-3.0557 8.157,-3.2969 C 7.849,-4.4375 7.279,-5.3232 6.446,-5.9521 5.613,-6.583 4.549,-6.8975 3.255,-6.8975 c -1.631,0 -2.924,0.502 -3.88,1.5069 -0.955,1.0039 -1.433,2.4121 -1.433,4.2256 0,1.875 0.484,3.331 1.45,4.367 0.965,1.035 2.218,1.553 3.757,1.553 1.492,0 2.709,-0.507 3.654,-1.522 C 7.748,2.219 8.22,0.791 8.22,-1.0498 8.22,-1.1621 8.217,-1.3301 8.21,-1.5537 l -8.315,0 c 0.07,-1.2246 0.416,-2.1631 1.04,-2.8135 0.623,-0.6514 1.399,-0.9765 2.33,-0.9765 0.693,0 1.284,0.1816 1.774,0.5459 0.49,0.3642 0.878,0.9453 1.166,1.7421"
         style="fill:#221e1f;fill-opacity:1;fill-rule:nonzero;stroke:none"
         id="path156"
         inkscape:connector-curvature="0" /></g><path
       d="m 49.942,4.2727 1.8896,0 0,15.391 -1.8896,0 0,-15.391 z"
       style="fill:#221e1f;fill-opacity:1;fill-rule:nonzero;stroke:none"
       id="path158"
       inkscape:connector-curvature="0" /><g
       id="g160"
       transform="translate(56,9.8469)"><path
         d="m 0,0 c 0,-1.4277 0.311,-2.4971 0.934,-3.207 0.623,-0.71 1.407,-1.0654 2.352,-1.0654 0.938,0 1.718,0.3564 2.341,1.0712 0.622,0.7129 0.934,1.8018 0.934,3.2647 C 6.561,1.442 6.248,2.486 5.622,3.197 4.995,3.907 4.216,4.263 3.286,4.263 2.341,4.263 1.557,3.909 0.934,3.202 0.311,2.495 0,1.428 0,0 Z m -1.942,0 c 0,2.065 0.573,3.594 1.721,4.588 0.959,0.826 2.128,1.238 3.507,1.238 1.532,0 2.785,-0.502 3.758,-1.506 0.973,-1.005 1.459,-2.391 1.459,-4.162 0,-1.4353 -0.215,-2.5633 -0.646,-3.3855 -0.43,-0.8233 -1.056,-1.461 -1.878,-1.916 -0.823,-0.4551 -1.721,-0.6827 -2.693,-0.6827 -1.561,0 -2.823,0.5 -3.785,1.501 -0.962,1.001 -1.443,2.4424 -1.443,4.3252"
         style="fill:#221e1f;fill-opacity:1;fill-rule:nonzero;stroke:none"
         id="path162"
         inkscape:connector-curvature="0" /></g><g
       id="g164"
       transform="translate(68.429,9.7844)"><path
         d="m 0,0 c 0,-1.4346 0.291,-2.4951 0.872,-3.1816 0.58,-0.6856 1.284,-1.0283 2.109,-1.0283 0.84,0 1.559,0.3554 2.158,1.0654 0.598,0.7099 0.898,1.8105 0.898,3.3017 C 6.037,1.578 5.744,2.642 5.16,3.349 4.575,4.056 3.877,4.409 3.065,4.409 2.261,4.409 1.548,4.032 0.929,3.28 0.31,2.528 0,1.435 0,0 Z m -1.711,-9.7844 0,15.4214 1.721,0 0,-1.449 c 0.407,0.568 0.865,0.993 1.376,1.276 0.51,0.283 1.13,0.425 1.858,0.425 0.952,0 1.792,-0.244 2.519,-0.735 0.728,-0.49 1.278,-1.18 1.649,-2.073 0.371,-0.892 0.556,-1.87 0.556,-2.9345 0,-1.1406 -0.205,-2.168 -0.614,-3.0811 -0.41,-0.913 -1.004,-1.6132 -1.785,-2.0996 -0.78,-0.4863 -1.601,-0.7295 -2.462,-0.7295 -0.629,0 -1.195,0.1329 -1.695,0.3985 -0.5,0.2666 -0.911,0.6025 -1.234,1.0078 l 0,-5.427 -1.889,0"
         style="fill:#221e1f;fill-opacity:1;fill-rule:nonzero;stroke:none"
         id="path166"
         inkscape:connector-curvature="0" /></g><g
       id="g168"
       transform="translate(78.675,4.2727)"><path
         d="m 0,0 0,11.148 1.69,0 0,-1.563 c 0.35,0.546 0.816,0.984 1.397,1.317 0.58,0.332 1.242,0.498 1.984,0.498 0.825,0 1.503,-0.171 2.031,-0.513 0.528,-0.343 0.901,-0.823 1.118,-1.439 0.882,1.302 2.029,1.952 3.444,1.952 1.105,0 1.956,-0.305 2.55,-0.918 0.596,-0.612 0.893,-1.555 0.893,-2.829 l 0,-7.653 -1.879,0 0,7.023 c 0,0.756 -0.062,1.3 -0.184,1.632 -0.123,0.333 -0.345,0.601 -0.667,0.804 -0.321,0.203 -0.7,0.305 -1.133,0.305 C 10.46,9.764 9.809,9.502 9.291,8.981 8.773,8.46 8.514,7.625 8.514,6.477 l 0,-6.477 -1.89,0 0,7.244 c 0,0.84 -0.153,1.469 -0.461,1.889 C 5.854,9.553 5.351,9.764 4.651,9.764 4.119,9.764 3.627,9.623 3.176,9.344 2.725,9.064 2.397,8.654 2.194,8.115 1.991,7.576 1.89,6.799 1.89,5.784 L 1.89,0 0,0"
         style="fill:#221e1f;fill-opacity:1;fill-rule:nonzero;stroke:none"
         id="path170"
         inkscape:connector-curvature="0" /></g><g
       id="g172"
       transform="translate(98.013,10.918)"><path
         d="M 0,0 6.225,0 C 6.141,0.938 5.903,1.641 5.511,2.11 4.91,2.838 4.13,3.202 3.171,3.202 2.302,3.202 1.573,2.911 0.981,2.33 0.391,1.749 0.063,0.973 0,0 Z M 6.204,-3.0557 8.157,-3.2969 C 7.849,-4.4375 7.279,-5.3232 6.446,-5.9521 5.613,-6.583 4.55,-6.8975 3.255,-6.8975 c -1.631,0 -2.924,0.502 -3.88,1.5069 -0.955,1.0039 -1.433,2.4121 -1.433,4.2256 0,1.875 0.484,3.331 1.45,4.367 0.965,1.035 2.218,1.553 3.757,1.553 1.491,0 2.709,-0.507 3.653,-1.522 0.946,-1.014 1.417,-2.442 1.417,-4.2828 0,-0.1123 -0.003,-0.2803 -0.009,-0.5039 l -8.315,0 c 0.07,-1.2246 0.416,-2.1631 1.04,-2.8135 0.623,-0.6514 1.399,-0.9765 2.329,-0.9765 0.694,0 1.286,0.1816 1.775,0.5459 0.49,0.3642 0.879,0.9453 1.165,1.7421"
         style="fill:#221e1f;fill-opacity:1;fill-rule:nonzero;stroke:none"
         id="path174"
         inkscape:connector-curvature="0" /></g><g
       id="g176"
       transform="translate(108.542,4.2727)"><path
         d="m 0,0 0,11.148 1.701,0 0,-1.584 c 0.819,1.224 2.001,1.836 3.548,1.836 0.672,0 1.29,-0.12 1.854,-0.361 0.562,-0.242 0.984,-0.558 1.264,-0.95 C 8.647,9.696 8.843,9.231 8.955,8.692 9.025,8.343 9.06,7.731 9.06,6.855 L 9.06,0 7.171,0 l 0,6.781 C 7.171,7.552 7.097,8.127 6.95,8.509 6.803,8.89 6.542,9.194 6.168,9.422 5.793,9.649 5.354,9.764 4.851,9.764 4.046,9.764 3.351,9.508 2.767,8.997 2.182,8.486 1.89,7.517 1.89,6.089 L 1.89,0 0,0"
         style="fill:#221e1f;fill-opacity:1;fill-rule:nonzero;stroke:none"
         id="path178"
         inkscape:connector-curvature="0" /></g><g
       id="g180"
       transform="translate(124.626,5.9631)"><path
         d="m 0,0 0.273,-1.6689 c -0.532,-0.1123 -1.007,-0.168 -1.427,-0.168 -0.687,0 -1.219,0.1084 -1.596,0.3252 -0.379,0.2168 -0.645,0.502 -0.799,0.8555 -0.153,0.3535 -0.23,1.0967 -0.23,2.2304 l 0,6.4148 -1.386,0 0,1.469 1.386,0 0,2.762 1.879,1.134 0,-3.896 1.9,0 0,-1.469 -1.9,0 0,-6.5192 c 0,-0.5391 0.033,-0.8858 0.099,-1.0391 0.067,-0.1543 0.175,-0.2774 0.326,-0.3682 0.151,-0.0908 0.366,-0.1357 0.646,-0.1357 0.21,0 0.486,0.0244 0.829,0.0732"
         style="fill:#221e1f;fill-opacity:1;fill-rule:nonzero;stroke:none"
         id="path182"
         inkscape:connector-curvature="0" /></g><g
       id="g184"
       transform="translate(143.669,9.6692)"><path
         d="m 0,0 2.036,-0.5147 c -0.427,-1.6728 -1.194,-2.9482 -2.304,-3.8271 -1.109,-0.8779 -2.465,-1.3174 -4.068,-1.3174 -1.658,0 -3.008,0.3379 -4.047,1.0137 -1.039,0.6748 -1.83,1.6533 -2.372,2.9336 -0.543,1.2812 -0.814,2.6559 -0.814,4.1259 0,1.603 0.306,3.001 0.919,4.194 0.612,1.193 1.483,2.1 2.614,2.719 1.13,0.619 2.374,0.929 3.732,0.929 1.539,0 2.834,-0.392 3.884,-1.176 C 0.63,8.297 1.361,7.194 1.774,5.773 L -0.231,5.301 c -0.357,1.12 -0.875,1.935 -1.553,2.446 -0.68,0.511 -1.533,0.767 -2.563,0.767 -1.182,0 -2.171,-0.284 -2.965,-0.851 C -8.106,7.096 -8.664,6.335 -8.986,5.38 -9.309,4.425 -9.47,3.439 -9.47,2.425 c 0,-1.309 0.192,-2.4514 0.572,-3.428 0.382,-0.9765 0.975,-1.706 1.78,-2.1884 0.805,-0.4834 1.677,-0.7246 2.614,-0.7246 1.141,0 2.106,0.3291 2.898,0.9863 C -0.815,-2.2715 -0.28,-1.2949 0,0"
         style="fill:#221e1f;fill-opacity:1;fill-rule:nonzero;stroke:none"
         id="path186"
         inkscape:connector-curvature="0" /></g><g
       id="g188"
       transform="translate(149.4,10.918)"><path
         d="M 0,0 6.226,0 C 6.142,0.938 5.904,1.641 5.512,2.11 4.911,2.838 4.13,3.202 3.171,3.202 2.303,3.202 1.574,2.911 0.982,2.33 0.391,1.749 0.064,0.973 0,0 Z M 6.204,-3.0557 8.158,-3.2969 C 7.85,-4.4375 7.28,-5.3232 6.447,-5.9521 5.614,-6.583 4.55,-6.8975 3.255,-6.8975 c -1.631,0 -2.924,0.502 -3.879,1.5069 -0.956,1.0039 -1.433,2.4121 -1.433,4.2256 0,1.875 0.483,3.331 1.449,4.367 0.966,1.035 2.219,1.553 3.758,1.553 1.491,0 2.709,-0.507 3.653,-1.522 C 7.748,2.219 8.22,0.791 8.22,-1.0498 8.22,-1.1621 8.217,-1.3301 8.21,-1.5537 l -8.314,0 c 0.069,-1.2246 0.416,-2.1631 1.039,-2.8135 0.623,-0.6514 1.399,-0.9765 2.33,-0.9765 0.693,0 1.285,0.1816 1.774,0.5459 0.491,0.3642 0.879,0.9453 1.165,1.7421"
         style="fill:#221e1f;fill-opacity:1;fill-rule:nonzero;stroke:none"
         id="path190"
         inkscape:connector-curvature="0" /></g><g
       id="g192"
       transform="translate(159.93,4.2727)"><path
         d="m 0,0 0,11.148 1.701,0 0,-1.584 c 0.818,1.224 2.001,1.836 3.548,1.836 0.672,0 1.29,-0.12 1.853,-0.361 0.563,-0.242 0.985,-0.558 1.265,-0.95 C 8.647,9.696 8.842,9.231 8.955,8.692 9.025,8.343 9.059,7.731 9.059,6.855 l 0,-6.855 -1.888,0 0,6.781 C 7.171,7.552 7.096,8.127 6.95,8.509 6.802,8.89 6.542,9.194 6.168,9.422 5.793,9.649 5.354,9.764 4.85,9.764 4.046,9.764 3.35,9.508 2.766,8.997 2.181,8.486 1.889,7.517 1.889,6.089 L 1.889,0 0,0"
         style="fill:#221e1f;fill-opacity:1;fill-rule:nonzero;stroke:none"
         id="path194"
         inkscape:connector-curvature="0" /></g><g
       id="g196"
       transform="translate(176.014,5.9631)"><path
         d="m 0,0 0.273,-1.6689 c -0.532,-0.1123 -1.008,-0.168 -1.428,-0.168 -0.686,0 -1.218,0.1084 -1.595,0.3252 -0.379,0.2168 -0.645,0.502 -0.799,0.8555 -0.153,0.3535 -0.231,1.0967 -0.231,2.2304 l 0,6.4148 -1.385,0 0,1.469 1.385,0 0,2.762 1.879,1.134 0,-3.896 1.901,0 0,-1.469 -1.901,0 0,-6.5192 c 0,-0.5391 0.033,-0.8858 0.1,-1.0391 0.066,-0.1543 0.175,-0.2774 0.326,-0.3682 0.15,-0.0908 0.365,-0.1357 0.646,-0.1357 0.21,0 0.486,0.0244 0.829,0.0732"
         style="fill:#221e1f;fill-opacity:1;fill-rule:nonzero;stroke:none"
         id="path198"
         inkscape:connector-curvature="0" /></g><g
       id="g200"
       transform="translate(179.289,10.918)"><path
         d="M 0,0 6.226,0 C 6.142,0.938 5.903,1.641 5.512,2.11 4.91,2.838 4.13,3.202 3.171,3.202 2.303,3.202 1.573,2.911 0.982,2.33 0.391,1.749 0.064,0.973 0,0 Z M 6.204,-3.0557 8.157,-3.2969 C 7.85,-4.4375 7.279,-5.3232 6.446,-5.9521 5.613,-6.583 4.55,-6.8975 3.255,-6.8975 c -1.631,0 -2.924,0.502 -3.879,1.5069 -0.956,1.0039 -1.434,2.4121 -1.434,4.2256 0,1.875 0.484,3.331 1.45,4.367 0.965,1.035 2.218,1.553 3.757,1.553 1.492,0 2.709,-0.507 3.654,-1.522 C 7.748,2.219 8.22,0.791 8.22,-1.0498 8.22,-1.1621 8.217,-1.3301 8.21,-1.5537 l -8.314,0 c 0.069,-1.2246 0.416,-2.1631 1.039,-2.8135 0.623,-0.6514 1.399,-0.9765 2.33,-0.9765 0.693,0 1.285,0.1816 1.774,0.5459 0.49,0.3642 0.879,0.9453 1.165,1.7421"
         style="fill:#221e1f;fill-opacity:1;fill-rule:nonzero;stroke:none"
         id="path202"
         inkscape:connector-curvature="0" /></g><g
       id="g204"
       transform="translate(189.798,4.2727)"><path
         d="m 0,0 0,11.148 1.7,0 0,-1.689 c 0.435,0.791 0.835,1.313 1.202,1.564 0.367,0.252 0.772,0.377 1.213,0.377 0.637,0 1.284,-0.202 1.941,-0.608 L 5.406,9.039 C 4.944,9.312 4.482,9.448 4.02,9.448 3.607,9.448 3.236,9.324 2.908,9.075 2.579,8.827 2.345,8.482 2.204,8.041 1.994,7.369 1.89,6.635 1.89,5.837 L 1.89,0 0,0"
         style="fill:#221e1f;fill-opacity:1;fill-rule:nonzero;stroke:none"
         id="path206"
         inkscape:connector-curvature="0" /></g></g></svg>