<?xml version="1.0" encoding="UTF-8" standalone="no"?>
<!-- Created with Inkscape (http://www.inkscape.org/) -->

<svg
   xmlns:dc="http://purl.org/dc/elements/1.1/"
   xmlns:cc="http://creativecommons.org/ns#"
   xmlns:rdf="http://www.w3.org/1999/02/22-rdf-syntax-ns#"
   xmlns:svg="http://www.w3.org/2000/svg"
   xmlns="http://www.w3.org/2000/svg"
   xmlns:sodipodi="http://sodipodi.sourceforge.net/DTD/sodipodi-0.dtd"
   xmlns:inkscape="http://www.inkscape.org/namespaces/inkscape"
   id="svg2"
   version="1.1"
   inkscape:version="0.48.4 r9939"
   width="3600"
   height="2700"
   xml:space="preserve"
   sodipodi:docname="usace.wmf"><metadata
     id="metadata8"><rdf:RDF><cc:Work
         rdf:about=""><dc:format>image/svg+xml</dc:format><dc:type
           rdf:resource="http://purl.org/dc/dcmitype/StillImage" /><dc:title></dc:title></cc:Work></rdf:RDF></metadata><defs
     id="defs6"><clipPath
       clipPathUnits="userSpaceOnUse"
       id="clipPath16"><path
         d="m 0,2160 2880,0 L 2880,0 0,0 0,2160 z"
         id="path18" /></clipPath></defs><sodipodi:namedview
     pagecolor="#ffffff"
     bordercolor="#666666"
     borderopacity="1"
     objecttolerance="10"
     gridtolerance="10"
     guidetolerance="10"
     inkscape:pageopacity="0"
     inkscape:pageshadow="2"
     inkscape:window-width="640"
     inkscape:window-height="480"
     id="namedview4"
     showgrid="false"
     inkscape:zoom="0.087407407"
     inkscape:cx="1800"
     inkscape:cy="1350"
     inkscape:window-x="51"
     inkscape:window-y="24"
     inkscape:window-maximized="0"
     inkscape:current-layer="g10" /><g
     id="g10"
     inkscape:groupmode="layer"
     inkscape:label="usace"
     transform="matrix(1.25,0,0,-1.25,0,2700)"><g
       id="g12"><g
         id="g14"
         clip-path="url(#clipPath16)"><g
           id="g20"
           transform="translate(1693.459,1813.0107)"><path
             d="M 0,0 C 0,1.513 2.368,-746.055 1.514,-790.105 0,-867.598 -77.49,-949.646 -145.865,-949.646 c -51.655,0 -1081.838,-1.513 -1150.212,-1.513 -69.897,0 -151.937,86.605 -153.46,158.016 0,53.177 1.523,777.938 0,776.424 1.523,85.085 86.608,170.178 170.18,170.178 1.514,0 1119.817,1.523 1119.817,3.036 C -79.005,154.982 0,79.005 0,0"
             style="fill:#ff0000;fill-opacity:1;fill-rule:nonzero;stroke:none"
             id="path22" /></g><g
           id="g24"
           transform="translate(412.5791,1876.8184)"><path
             d="m 0,0 c 31.152,0 1092.85,-1.513 1117.922,-1.513 37.604,0 74.071,-39.885 74.071,-74.455 l 0,-779.469 c 0,-40.641 -44.799,-69.914 -75.958,-69.914 -31.162,0 -1071.974,0.338 -1112.617,0 -41.78,-0.356 -78.629,37.249 -77.107,72.578 1.389,32.263 -1.522,743 -1.522,773.768 C -75.211,-43.677 -34.187,0 0,0"
             style="fill:#ffffff;fill-opacity:1;fill-rule:nonzero;stroke:none"
             id="path26" /></g><g
           id="g28"
           transform="translate(419.416,1837.6987)"><path
             d="m 0,0 1106.526,0 c 27.35,0 43.305,-20.512 43.305,-43.304 l 0,-764.653 c 0,-26.21 -23.934,-44.443 -46.725,-44.443 -22.792,0 -1074.615,2.278 -1104.246,2.278 -29.628,0 -46.722,19.373 -46.722,47.863 0,28.49 2.984,717.957 1.709,749.84 C -47.292,-23.931 -28.489,0 0,0"
             style="fill:#ff0000;fill-opacity:1;fill-rule:nonzero;stroke:none"
             id="path30" /></g><g
           id="g32"
           transform="translate(496.1504,1740.8354)"><path
             d="m 0,0 65.34,0 0,-56.222 39.501,0 0,56.222 61.538,0 0,-56.979 38.744,0 0,56.222 66.853,0 0,-101.047 -34.562,-34.571 0,-156.878 130.285,0 0,60.779 -31.141,31.143 0,99.527 60.772,0 0,-56.98 39.51,0 0,56.98 65.329,0 0,-56.98 39.512,0 0,56.98 69.887,0 0,-95.726 -37.98,-37.978 0,-58.501 134.47,0 0,165.611 -28.872,28.872 0,99.526 63.815,0 0,-57.735 39.502,0 0,56.97 65.34,0 0,-56.214 39.501,0 0,56.979 62.303,0 0,-101.804 -30.395,-30.386 0,-368.466 32.283,-32.291 0,-101.421 -952.301,0 0,101.805 36.084,33.804 0,365.803 L 0.562,-100.479 0,0 z"
             style="fill:#ffffff;fill-opacity:1;fill-rule:nonzero;stroke:none"
             id="path34" /></g><path
           d="m 1292.329,1582.051 39.512,0 0,-135.225 -39.512,0 0,135.225 z"
           style="fill:#ff0000;fill-opacity:1;fill-rule:nonzero;stroke:none"
           id="path36" /><path
           d="m 1331.075,1207.515 -39.502,0 0,132.946 39.502,0 0,-132.946 z"
           style="fill:#ff0000;fill-opacity:1;fill-rule:nonzero;stroke:none"
           id="path38" /><path
           d="m 1170.777,1239.422 -35.709,0 0,101.039 35.709,0 0,-101.039 z"
           style="fill:#ff0000;fill-opacity:1;fill-rule:nonzero;stroke:none"
           id="path40" /><g
           id="g42"
           transform="translate(771.1709,1340.4614)"><path
             d="m 0,0 37.98,0 0,-101.039 -38.746,0 L 0,0 z"
             style="fill:#ff0000;fill-opacity:1;fill-rule:nonzero;stroke:none"
             id="path44" /></g><g
           id="g46"
           transform="translate(649.6113,1340.4614)"><path
             d="m 0,0 0,-132.189 -37.991,0 0,132.946 L 0,0 z"
             style="fill:#ff0000;fill-opacity:1;fill-rule:nonzero;stroke:none"
             id="path48" /></g><path
           d="m 651.133,1447.582 -39.512,0 0,134.469 39.512,0 0,-134.469 z"
           style="fill:#ff0000;fill-opacity:1;fill-rule:nonzero;stroke:none"
           id="path50" /><g
           id="g52"
           transform="translate(882.0835,1132.3042)"><path
             d="m 0,0 173.971,0 0,107.118 c 0,62.295 -73.689,101.805 -89.642,101.805 C 68.374,208.923 0,164.098 -0.757,107.118 -0.757,92.687 0,0 0,0"
             style="fill:#ff0000;fill-opacity:1;fill-rule:nonzero;stroke:none"
             id="path54" /></g><g
           id="g56"
           transform="translate(241.9512,753.5293)"><path
             d="m 0,0 51.438,0 0,-129.751 c 0,-21.895 0.638,-36.088 1.912,-42.575 2.201,-10.427 7.443,-18.808 15.727,-25.121 8.283,-6.314 19.608,-9.46 33.973,-9.46 14.597,0 25.602,2.972 33.016,8.958 7.415,5.948 11.876,13.285 13.381,21.974 1.507,8.688 2.259,23.111 2.259,43.268 l 0,135.989 51.438,0 0,-128.864 c 0,-30.584 -1.391,-52.189 -4.171,-64.817 -2.78,-12.628 -7.907,-23.287 -15.38,-31.975 -7.47,-8.689 -17.463,-15.619 -29.974,-20.757 -12.513,-5.155 -28.847,-7.742 -49.006,-7.742 -24.328,0 -42.777,2.819 -55.347,8.437 -12.57,5.6 -22.504,12.9 -29.803,21.897 -7.298,8.958 -12.106,18.381 -14.423,28.229 C 1.681,-177.713 0,-156.166 0,-127.666 L 0,0 z"
             style="fill:#000000;fill-opacity:1;fill-rule:nonzero;stroke:none"
             id="path58" /></g><g
           id="g60"
           transform="translate(499.0078,587.0137)"><path
             d="m 0,0 50.443,4.809 c 3.031,-16.586 9.191,-28.75 18.478,-36.493 9.287,-7.782 21.809,-11.664 37.574,-11.664 16.693,0 29.281,3.457 37.749,10.35 8.465,6.932 12.695,15.002 12.695,24.253 0,5.945 -1.787,10.986 -5.339,15.156 -3.573,4.191 -9.79,7.821 -18.662,10.89 -6.072,2.046 -19.907,5.716 -41.504,10.968 C 63.641,35.008 42.604,41.146 31.405,50.974 15.64,64.8 9.278,83.779 9.278,103.648 c 0,12.782 3.716,24.735 11.12,35.895 7.416,11.141 18.103,19.616 32.063,25.429 13.949,5.832 30.788,8.746 50.529,8.746 32.227,0 56.489,-6.913 72.773,-20.738 16.288,-13.805 24.842,-32.244 25.661,-55.336 l -51.852,-2.22 c -2.211,12.917 -6.969,22.203 -14.269,27.841 -7.298,5.659 -18.246,8.476 -32.843,8.476 -15.051,0 -26.849,-3.03 -35.383,-9.074 -5.483,-3.881 -8.234,-9.095 -8.234,-15.602 0,-5.927 2.576,-11.005 7.722,-15.253 6.527,-5.349 22.409,-10.948 47.634,-16.779 25.227,-5.811 43.879,-11.856 55.955,-18.054 12.088,-6.235 21.55,-14.731 28.385,-25.544 6.824,-10.775 10.242,-24.135 10.242,-40.007 0,-14.386 -4.084,-27.862 -12.26,-40.432 -8.178,-12.549 -19.733,-21.895 -34.679,-27.997 -14.954,-6.101 -33.576,-9.171 -55.867,-9.171 -32.478,0 -57.405,7.318 -74.791,21.992 C 13.776,-49.486 3.389,-28.093 0,0"
             style="fill:#000000;fill-opacity:1;fill-rule:nonzero;stroke:none"
             id="path62" /></g><g
           id="g64"
           transform="translate(989.1172,605.9756)"><path
             d="M 0,0 -32.613,94.534 -64.587,0 0,0 z m 87.997,-100.789 -51.988,0 -20.66,57.867 -94.63,0 -19.532,-57.867 -50.693,0 92.198,254.754 50.521,0 94.784,-254.754 z"
             style="fill:#000000;fill-opacity:1;fill-rule:nonzero;stroke:none"
             id="path66" /></g><g
           id="g68"
           transform="translate(1145.5527,505.3594)"><path
             d="m 0,0 -48.831,0 0,184.549 45.355,0 0,-26.24 c 7.762,12.396 14.742,20.564 20.94,24.503 6.198,3.939 13.236,5.908 21.114,5.908 11.121,0 21.839,-3.07 32.149,-9.21 L 55.608,136.936 c -8.225,5.328 -15.873,7.992 -22.938,7.992 -6.835,0 -12.628,-1.891 -17.378,-5.638 C 10.543,135.507 6.806,128.709 4.084,118.863 1.361,109.016 0,88.394 0,56.999 L 0,0 z"
             style="fill:#000000;fill-opacity:1;fill-rule:nonzero;stroke:none"
             id="path70" /></g><g
           id="g72"
           transform="translate(1226.7539,689.9082)"><path
             d="m 0,0 44.187,0 0,-25.197 C 60,-5.617 78.817,4.171 100.655,4.171 c 11.603,0 21.674,-2.432 30.199,-7.298 8.533,-4.865 15.532,-12.222 20.988,-22.07 7.963,9.848 16.547,17.205 25.766,22.07 9.2,4.866 19.049,7.298 29.513,7.298 13.303,0 24.561,-2.761 33.79,-8.264 9.211,-5.503 16.083,-13.574 20.641,-24.232 3.302,-7.878 4.942,-20.62 4.942,-38.231 l 0,-117.993 -47.942,0 0,105.482 c 0,18.304 -1.643,30.122 -4.942,35.45 -4.443,6.952 -11.258,10.426 -20.467,10.426 -6.721,0 -13.035,-2.085 -18.953,-6.255 -5.908,-4.171 -10.174,-10.292 -12.792,-18.324 -2.616,-8.071 -3.919,-20.776 -3.919,-38.154 l 0,-88.625 -47.942,0 0,101.138 c 0,17.955 -0.859,29.541 -2.568,34.755 -1.7,5.213 -4.344,9.093 -7.926,11.642 -3.582,2.549 -8.448,3.823 -14.589,3.823 -7.394,0 -14.046,-2.027 -19.965,-6.081 -5.906,-4.055 -10.155,-9.906 -12.704,-17.552 -2.568,-7.646 -3.841,-20.332 -3.841,-38.057 l 0,-89.668 -47.944,0 L 0,0 z"
             style="fill:#000000;fill-opacity:1;fill-rule:nonzero;stroke:none"
             id="path74" /></g><g
           id="g76"
           transform="translate(1502.0137,689.8906)"><path
             d="M 0,0 49.256,0 91.099,-131.029 131.936,0 l 47.942,0 -61.769,-177.6 -11.044,-32.148 c -4.055,-10.773 -7.934,-19 -11.624,-24.676 -3.668,-5.678 -7.896,-10.272 -12.666,-13.805 -4.789,-3.535 -10.658,-6.294 -17.629,-8.264 -6.969,-1.969 -14.847,-2.955 -23.632,-2.955 -8.902,0 -17.629,0.986 -26.202,2.955 l -4.113,38.23 c 7.24,-1.505 13.787,-2.258 19.6,-2.258 10.771,0 18.727,3.34 23.884,9.981 5.174,6.682 9.131,15.158 11.874,25.468 L 0,0 z"
             style="fill:#000000;fill-opacity:1;fill-rule:nonzero;stroke:none"
             id="path78" /></g><g
           id="g80"
           transform="translate(1982.4707,594.0625)"><path
             d="M 0,0 49.795,-4.691 C 48.135,-31.049 29.503,-64.277 11.721,-77.756 -6.063,-91.271 -28.615,-98.01 -55.956,-98.01 c -33.829,0 -61.632,11.566 -83.411,34.659 -21.781,23.13 -32.672,54.721 -32.672,94.803 0,42.402 10.949,75.342 32.846,98.782 21.894,23.481 50.683,35.2 86.365,35.2 31.163,0 56.477,-9.211 75.939,-27.629 11.585,-10.892 28.327,-37.034 28.327,-61.749 L -1.737,78.72 c -3.013,13.207 -9.289,23.633 -18.866,31.279 -9.537,7.646 -21.161,11.471 -34.832,11.471 -18.882,0 -34.213,-6.779 -45.954,-20.333 -11.778,-13.555 -17.647,-35.507 -17.647,-65.862 0,-32.207 5.792,-55.144 17.378,-68.815 11.584,-13.669 26.645,-20.505 45.18,-20.505 13.671,0 25.429,4.346 35.277,13.034 C -11.354,-32.321 -4.288,-18.651 0,0"
             style="fill:#000000;fill-opacity:1;fill-rule:nonzero;stroke:none"
             id="path82" /></g><g
           id="g84"
           transform="translate(2101.7588,595.9736)"><path
             d="m 0,0 c 0,-18.304 4.362,-32.323 13.11,-42.054 8.745,-9.732 19.56,-14.597 32.381,-14.597 12.82,0 23.574,4.865 32.282,14.597 8.691,9.731 13.052,23.866 13.052,42.401 0,18.074 -4.361,31.974 -13.052,41.707 C 69.065,51.785 58.311,56.651 45.491,56.651 32.67,56.651 21.855,51.785 13.11,42.054 4.362,32.321 0,18.305 0,0 m -50.415,2.605 c 0,16.221 4.016,31.918 12.086,47.094 8.052,15.176 19.443,26.762 34.197,34.756 14.751,7.993 31.238,11.99 49.429,11.99 28.131,0 51.167,-9.075 69.142,-27.186 17.976,-18.151 26.955,-41.049 26.955,-68.738 0,-27.918 -9.075,-51.072 -27.206,-69.433 -18.169,-18.36 -40.971,-27.533 -68.524,-27.533 -17.05,0 -33.288,3.822 -48.753,11.467 -15.448,7.647 -27.188,18.846 -35.24,33.637 -8.07,14.75 -12.086,32.746 -12.086,53.946"
             style="fill:#000000;fill-opacity:1;fill-rule:nonzero;stroke:none"
             id="path86" /></g><g
           id="g88"
           transform="translate(2446.4121,602.4023)"><path
             d="m 0,0 c 0,-20.736 4.093,-36.048 12.241,-45.972 8.187,-9.885 18.132,-14.848 29.87,-14.848 11.278,0 20.641,4.538 28.114,13.651 7.491,9.075 11.217,24 11.217,44.737 0,19.347 -3.842,33.713 -11.546,43.095 C 62.191,50.049 52.635,54.739 41.243,54.739 29.406,54.739 19.559,50.146 11.739,40.916 3.9,31.725 0,18.074 0,0 m -47.98,89.146 45.218,0 0,-27.107 c 5.871,9.268 13.806,16.797 23.827,22.591 10.002,5.792 21.104,8.688 33.308,8.688 21.276,0 39.33,-8.399 54.179,-25.197 14.829,-16.799 22.262,-40.201 22.262,-70.204 0,-30.816 -7.492,-54.78 -22.436,-71.849 -14.964,-17.106 -33.077,-25.641 -54.354,-25.641 -10.118,0 -19.327,2.029 -27.534,6.084 -8.244,4.053 -16.874,11.005 -25.988,20.852 l 0,-92.969 -48.482,0 0,254.752 z"
             style="fill:#000000;fill-opacity:1;fill-rule:nonzero;stroke:none"
             id="path90" /></g><g
           id="g92"
           transform="translate(2591.2246,566.3145)"><path
             d="m 0,0 49.236,-1.66 c 2.086,-9.499 6.314,-16.721 12.686,-21.623 6.372,-4.946 15.293,-7.397 26.762,-7.397 12.628,0 22.127,2.318 28.499,6.951 4.287,3.246 6.429,7.589 6.429,13.034 0,3.707 -1.159,6.776 -3.474,9.211 -2.435,2.314 -7.878,4.46 -16.337,6.429 C 64.414,13.635 39.447,21.569 28.905,28.751 14.309,38.714 7.01,52.559 7.01,70.284 c 0,15.987 6.314,29.426 18.941,40.316 12.627,10.89 32.206,16.335 58.737,16.335 25.254,0 44.022,-4.113 56.302,-12.338 12.28,-8.225 24.598,-25.622 24.598,-45.395 l -45.277,0.387 c -1.97,7.182 -5.716,12.685 -11.217,16.509 -5.503,3.823 -13.343,5.733 -23.538,5.733 -12.861,0 -22.07,-1.794 -27.631,-5.386 -3.706,-2.549 -5.56,-5.85 -5.56,-9.906 0,-3.475 1.621,-6.429 4.865,-8.861 4.402,-3.245 19.597,-7.82 45.607,-13.729 26.009,-5.908 44.178,-13.149 54.488,-21.721 10.194,-8.69 15.292,-20.795 15.292,-36.32 0,-16.913 -7.066,-31.454 -21.201,-43.618 -14.133,-12.165 -35.044,-18.246 -62.732,-18.246 -25.139,0 -45.047,5.098 -59.683,15.292 C 14.327,-40.469 0,-24.714 0,0"
             style="fill:#000000;fill-opacity:1;fill-rule:nonzero;stroke:none"
             id="path94" /></g><g
           id="g96"
           transform="translate(288.2319,255.5371)"><path
             d="m 0,0 c 0,-18.305 4.296,-32.324 12.897,-42.056 8.593,-9.731 19.193,-14.597 31.801,-14.597 12.609,0 23.18,4.866 31.714,14.597 8.545,9.732 12.812,23.867 12.812,42.402 0,18.073 -4.267,31.975 -12.812,41.706 C 67.878,51.784 57.307,56.65 44.698,56.65 32.09,56.65 21.49,51.784 12.897,42.052 4.296,32.321 0,18.303 0,0 m -49.507,2.604 c 0,16.22 3.959,31.917 11.855,47.095 7.917,15.176 19.115,26.76 33.616,34.754 14.5,7.994 30.69,11.991 48.561,11.991 27.611,0 50.26,-9.075 67.907,-27.186 17.647,-18.151 26.471,-41.05 26.471,-68.737 0,-27.92 -8.909,-51.072 -26.732,-69.434 -17.822,-18.361 -40.247,-27.534 -67.298,-27.534 -16.731,0 -32.69,3.823 -47.886,11.469 -15.176,7.646 -26.722,18.845 -34.639,33.635 -7.896,14.751 -11.855,32.746 -11.855,53.947"
             style="fill:#000000;fill-opacity:1;fill-rule:nonzero;stroke:none"
             id="path98" /></g><g
           id="g100"
           transform="translate(433.7866,347.8096)"><path
             d="m 0,0 29.186,2.048 0,14.828 c 0,15.524 4.662,30.547 11.121,38.31 12.359,14.827 57.115,16.527 70.438,12.356 L 111.98,25.527 C 104.218,27.381 87.265,29.234 78.616,23.054 74.957,20.449 75.941,0 75.941,0 l 36.493,0 0,-38.403 -36.493,0 0,-146.145 -44.901,-0.618 0.618,146.435 L 0,-38.403 0,0 z"
             style="fill:#000000;fill-opacity:1;fill-rule:nonzero;stroke:none"
             id="path102" /></g><g
           id="g104"
           transform="translate(700.8643,163.6465)"><path
             d="m 0,0 0,249.812 182.87,0 0,-42.266 -133.075,0 0,-55.376 123.826,0 0,-42.092 -123.826,0 0,-67.986 137.786,0 L 187.581,0 0,0 z"
             style="fill:#000000;fill-opacity:1;fill-rule:nonzero;stroke:none"
             id="path106" /></g><g
           id="g108"
           transform="translate(1091.0483,162.0254)"><path
             d="m 0,0 -48.832,0 0,96.212 c 0,20.353 -1.043,33.502 -3.128,39.488 -2.085,5.965 -5.464,10.619 -10.174,13.941 -4.673,3.321 -10.33,4.981 -16.935,4.981 -8.457,0 -16.044,-2.375 -22.765,-7.107 -6.717,-4.749 -11.333,-11.004 -13.824,-18.826 -2.491,-7.799 -3.727,-22.242 -3.727,-43.307 l 0,-85.382 -48.831,0 0,188.508 45.357,0 0,-27.689 c 16.102,21.297 36.376,31.956 60.821,31.956 10.773,0 20.621,-1.989 29.541,-5.948 8.921,-3.976 15.66,-9.016 20.254,-15.176 4.557,-6.159 7.743,-13.13 9.539,-20.948 C -0.908,142.901 0,131.722 0,117.163 L 0,0 z"
             style="fill:#000000;fill-opacity:1;fill-rule:nonzero;stroke:none"
             id="path110" /></g><g
           id="g112"
           transform="translate(1171.1187,260.2666)"><path
             d="m 0,0 c 0,-19.829 3.786,-34.351 11.375,-43.54 7.586,-9.231 16.952,-13.824 28.073,-13.824 11.933,0 22.011,4.71 30.238,14.172 8.224,9.421 12.336,23.42 12.336,41.957 0,19.346 -3.939,33.732 -11.815,43.115 C 62.318,51.263 52.365,55.956 40.318,55.956 28.616,55.956 18.961,51.34 11.375,42.13 3.786,32.921 0,18.883 0,0 m -43.617,-109.614 55.783,-6.874 c 0.926,-6.565 3.069,-11.083 6.429,-13.535 4.634,-3.535 11.932,-5.291 21.896,-5.291 12.743,0 22.3,1.932 28.673,5.812 4.285,2.587 7.53,6.739 9.732,12.492 1.505,4.114 2.258,11.664 2.258,22.708 l 0,27.263 c -14.597,-20.178 -33.017,-30.255 -55.26,-30.255 -24.792,0 -44.429,10.599 -58.921,31.838 -11.342,16.78 -17.02,37.651 -17.02,62.637 0,31.317 7.435,55.26 22.34,71.789 14.869,16.547 33.385,24.81 55.513,24.81 22.821,0 41.647,-10.136 56.475,-30.45 l 0,26.222 45.704,0 0,-167.675 c 0,-22.049 -1.796,-38.538 -5.386,-49.448 -3.594,-10.908 -8.633,-19.462 -15.119,-25.679 -6.487,-6.219 -15.158,-11.084 -25.97,-14.618 -10.861,-3.514 -24.542,-5.271 -41.108,-5.271 -31.279,0 -53.465,5.427 -66.565,16.278 -13.082,10.851 -19.628,24.598 -19.628,41.262 0,1.641 0.058,3.63 0.174,5.985"
             style="fill:#000000;fill-opacity:1;fill-rule:nonzero;stroke:none"
             id="path114" /></g><path
           d="m 1339.228,346.574 48.831,0 0,-184.549 -48.831,0 0,184.549 z m 0,70.205 48.831,0 0,-45.182 -48.831,0 0,45.182 z"
           style="fill:#000000;fill-opacity:1;fill-rule:nonzero;stroke:none"
           id="path116" /><g
           id="g118"
           transform="translate(1597.4287,162.0254)"><path
             d="m 0,0 -48.84,0 0,93.741 c 0,19.832 -1.043,32.652 -3.129,38.482 -2.086,5.812 -5.483,10.35 -10.156,13.575 -4.71,3.224 -10.348,4.846 -16.952,4.846 -8.457,0 -16.046,-2.298 -22.765,-6.913 -6.72,-4.614 -11.334,-10.735 -13.805,-18.343 -2.51,-7.607 -3.746,-21.663 -3.746,-42.189 l 0,-83.199 -48.832,0 0,183.681 45.357,0 0,-26.973 c 16.102,20.735 36.376,31.124 60.82,31.124 10.774,0 20.622,-1.932 29.534,-5.812 8.919,-3.863 15.678,-8.785 20.235,-14.771 4.595,-5.986 7.761,-12.803 9.576,-20.408 C -0.927,139.233 0,128.323 0,114.151 L 0,0 z"
             style="fill:#000000;fill-opacity:1;fill-rule:nonzero;stroke:none"
             id="path120" /></g><g
           id="g122"
           transform="translate(1744.7705,271.5234)"><path
             d="m 0,0 c -0.347,14.308 -3.995,25.179 -10.947,32.649 -6.95,7.415 -15.407,11.161 -25.37,11.161 -10.661,0 -19.463,-3.94 -26.415,-11.798 C -69.684,24.153 -73.101,13.478 -72.984,0 L 0,0 z m -2.779,-49.971 50.78,-3.494 c -3.302,-16.488 -18.265,-36.609 -31.762,-46.051 -13.496,-9.44 -30.372,-14.153 -50.645,-14.153 -32.091,0 -55.84,10.621 -71.248,31.84 -12.166,17.011 -18.247,38.481 -18.247,64.411 0,30.953 7.994,55.204 23.98,72.736 15.988,17.533 36.205,26.319 60.649,26.319 27.458,0 49.12,-9.192 64.991,-27.535 C 41.591,35.738 49.18,7.626 48.485,-30.275 l -122.339,0 c 0.348,-14.655 4.287,-26.067 11.817,-34.197 7.531,-8.184 16.915,-12.241 28.151,-12.241 7.647,0 14.077,2.106 19.288,6.335 5.214,4.208 9.154,11.024 11.819,20.407"
             style="fill:#000000;fill-opacity:1;fill-rule:nonzero;stroke:none"
             id="path124" /></g><g
           id="g126"
           transform="translate(1930.8838,271.7559)"><path
             d="m 0,0 c -0.347,14.133 -3.996,24.867 -10.945,32.243 -6.952,7.338 -15.41,11.025 -25.372,11.025 -10.66,0 -19.463,-3.879 -26.416,-11.642 C -69.683,23.864 -73.1,13.321 -72.985,0 L 0,0 z m -2.778,-49.354 47.554,-2.703 C 43.138,-71.829 29.735,-88.955 16.26,-98.28 c -13.517,-9.327 -30.394,-13.981 -50.667,-13.981 -32.089,0 -55.84,10.486 -71.248,31.454 -12.164,16.799 -18.245,37.999 -18.245,63.602 0,30.584 7.992,54.527 23.98,71.846 15.987,17.321 36.203,25.99 60.648,25.99 27.457,0 49.12,-9.075 64.992,-27.186 C 41.59,35.294 49.179,7.529 48.484,-29.89 l -122.337,0 c 0.346,-14.482 4.285,-25.757 11.817,-33.79 7.529,-8.07 16.913,-12.088 28.15,-12.088 7.647,0 14.076,2.085 19.29,6.257 5.212,4.171 9.152,10.89 11.818,20.157"
             style="fill:#000000;fill-opacity:1;fill-rule:nonzero;stroke:none"
             id="path128" /></g><g
           id="g130"
           transform="translate(2118.1768,222.5752)"><path
             d="m 0,0 48.83,-0.425 c 2.085,-9.499 6.314,-16.721 12.687,-21.623 6.371,-4.944 15.292,-7.396 26.761,-7.396 12.627,0 22.127,2.317 28.497,6.952 4.288,3.244 6.431,7.587 6.431,13.032 0,3.707 -1.16,6.776 -3.476,9.211 -2.433,2.316 -7.876,4.46 -16.334,6.43 C 64.008,14.87 39.041,22.805 28.498,29.986 13.901,39.95 6.604,53.794 6.604,71.521 c 0,15.986 6.313,29.424 18.941,40.314 12.626,10.891 32.205,16.335 58.736,16.335 25.254,0 44.023,-4.112 56.302,-12.338 12.279,-8.225 23.769,-20.68 23.769,-45.394 l -44.449,0.387 c -1.968,7.182 -5.715,12.685 -11.198,16.509 -5.521,3.822 -13.36,5.732 -23.556,5.732 -12.86,0 -22.07,-1.794 -27.63,-5.385 -3.707,-2.549 -5.561,-5.851 -5.561,-9.906 0,-3.475 1.621,-6.43 4.866,-8.862 4.402,-3.245 19.597,-7.819 45.625,-13.727 25.99,-5.91 44.159,-13.151 54.469,-21.723 10.194,-8.689 15.292,-20.795 15.292,-36.319 0,-16.914 -7.065,-31.455 -21.2,-43.618 -14.134,-12.166 -35.045,-18.247 -62.732,-18.247 -25.14,0 -45.049,5.098 -59.703,15.292 C 13.921,-39.232 3.707,-22.243 0,0"
             style="fill:#000000;fill-opacity:1;fill-rule:nonzero;stroke:none"
             id="path132" /></g><g
           id="g134"
           transform="translate(2048.8926,163.2676)"><path
             d="m 0,0 -48.83,0 0,184.549 45.354,0 0,-26.239 c 7.762,12.396 14.742,20.563 20.94,24.502 6.197,3.939 13.236,5.908 21.114,5.908 11.121,0 21.839,-3.069 32.149,-9.209 l -15.12,-42.575 c -8.223,5.328 -15.872,7.992 -22.937,7.992 -6.835,0 -12.629,-1.89 -17.378,-5.637 C 10.543,135.507 6.805,128.709 4.084,118.863 1.361,109.017 0,88.394 0,56.999 L 0,0 z"
             style="fill:#000000;fill-opacity:1;fill-rule:nonzero;stroke:none"
             id="path136" /></g><g
           id="g138"
           transform="translate(2312.6201,505.3428)"><path
             d="m 0,0 -48.831,0 0,184.549 45.354,0 0,-26.239 c 7.763,12.396 14.743,20.563 20.941,24.502 6.197,3.939 13.236,5.908 21.114,5.908 11.121,0 21.839,-3.069 32.149,-9.209 l -15.12,-42.575 c -8.224,5.328 -15.872,7.992 -22.937,7.992 -6.835,0 -12.629,-1.89 -17.378,-5.637 C 10.542,135.507 6.805,128.709 4.083,118.863 1.36,109.017 0,88.394 0,56.999 L 0,0 z"
             style="fill:#000000;fill-opacity:1;fill-rule:nonzero;stroke:none"
             id="path140" /></g><g
           id="g142"
           transform="translate(2475.6719,192.957)"><path
             d="m 0,0 c 0,-41.295 -33.468,-74.764 -74.764,-74.764 -41.295,0 -74.763,33.469 -74.763,74.764 0,41.295 33.468,74.763 74.763,74.763 C -33.468,74.763 0,41.295 0,0"
             style="fill:#000000;fill-opacity:1;fill-rule:nonzero;stroke:none"
             id="path144" /></g><g
           id="g146"
           transform="translate(2468.7383,193.4482)"><path
             d="m 0,0 c 0,-36.899 -29.92,-66.818 -66.818,-66.818 -36.903,0 -66.822,29.919 -66.822,66.818 0,36.9 29.919,66.821 66.822,66.821 C -29.92,66.821 0,36.9 0,0"
             style="fill:#ffffff;fill-opacity:1;fill-rule:nonzero;stroke:none"
             id="path148" /></g><g
           id="g150"
           transform="translate(2368.1992,235.0117)"><path
             d="m 0,0 c 0,0 38.621,-0.629 50.771,-0.629 21.189,0 19.903,-44.609 3.74,-43.602 11.213,-0.627 11.68,-8.264 11.213,-12.469 -1.08,-9.755 0,-15.887 0,-20.561 0,-4.674 4.992,-3.738 4.992,-3.738 l -0.626,-4.045 -14.017,0 c 0,0 -0.307,19.625 0,26.167 0.306,6.543 -4.206,11.682 -9.653,11.522 -6.41,-0.189 -8.192,-0.161 -34.274,0 l -0.625,-38.624 -11.828,0 L 0,0 z"
             style="fill:#000000;fill-opacity:1;fill-rule:nonzero;stroke:none"
             id="path152" /></g><g
           id="g154"
           transform="translate(2379.7207,195.7627)"><path
             d="m 0,0 0,29.275 c 0,0 20.56,0.628 34.27,0.628 C 47.982,29.903 45.951,0 36.14,0 L 0,0 z"
             style="fill:#ffffff;fill-opacity:1;fill-rule:nonzero;stroke:none"
             id="path156" /></g></g></g></g></svg>